<svg width="515" height="350" viewBox="0 0 515 350" fill="none" xmlns="http://www.w3.org/2000/svg">
<rect x="51" y="251" width="46" height="38" fill="white"/>
<rect x="51" y="251" width="46" height="38" stroke="#D7D7D7" stroke-width="2"/>
<path d="M72.856 265.168C72.3013 265.168 71.8907 265.275 71.624 265.488C71.3573 265.701 71.1813 266.059 71.096 266.56L70.984 267.184H72.616L72.36 268.672H70.728L69.432 276H67.592L68.888 268.672H67.848L68.104 267.184H69.144L69.256 266.56C69.4373 265.547 69.8373 264.811 70.456 264.352C71.0747 263.883 71.96 263.648 73.112 263.648L72.856 265.168ZM77.2565 271.52L79.3045 276H77.2405L75.8645 273.008L73.5445 276H71.6405L75.2565 271.664L73.1925 267.184H75.2565L76.6325 270.176L78.9525 267.184H80.8565L77.2565 271.52Z" fill="#0D0D0D"/>
<rect x="107" y="251" width="357" height="38" fill="white"/>
<rect x="107" y="251" width="357" height="38" stroke="#399667" stroke-width="2"/>
<path d="M128.846 267.632V269.168H120.334V267.632H128.846ZM128.846 271.264V272.8H120.334V271.264H128.846ZM137.941 270.288C138.538 270.395 139.045 270.709 139.461 271.232C139.877 271.755 140.085 272.347 140.085 273.008C140.085 273.573 139.936 274.085 139.637 274.544C139.349 274.992 138.928 275.349 138.373 275.616C137.818 275.872 137.173 276 136.437 276H131.989V264.88H136.229C136.986 264.88 137.637 265.008 138.181 265.264C138.725 265.52 139.136 265.867 139.413 266.304C139.69 266.731 139.829 267.211 139.829 267.744C139.829 268.384 139.658 268.917 139.317 269.344C138.976 269.771 138.517 270.085 137.941 270.288ZM133.813 269.552H136.069C136.666 269.552 137.13 269.419 137.461 269.152C137.802 268.875 137.973 268.48 137.973 267.968C137.973 267.467 137.802 267.077 137.461 266.8C137.13 266.512 136.666 266.368 136.069 266.368H133.813V269.552ZM136.277 274.512C136.896 274.512 137.381 274.363 137.733 274.064C138.085 273.765 138.261 273.349 138.261 272.816C138.261 272.272 138.074 271.84 137.701 271.52C137.328 271.2 136.832 271.04 136.213 271.04H133.813V274.512H136.277ZM143.891 264.16V276H142.067V264.16H143.891ZM154.27 267.184V276H152.446V274.96C152.158 275.323 151.779 275.611 151.31 275.824C150.851 276.027 150.361 276.128 149.838 276.128C149.145 276.128 148.521 275.984 147.966 275.696C147.422 275.408 146.99 274.981 146.67 274.416C146.361 273.851 146.206 273.168 146.206 272.368V267.184H148.014V272.096C148.014 272.885 148.211 273.493 148.606 273.92C149.001 274.336 149.539 274.544 150.222 274.544C150.905 274.544 151.443 274.336 151.838 273.92C152.243 273.493 152.446 272.885 152.446 272.096V267.184H154.27ZM164.757 271.376C164.757 271.707 164.735 272.005 164.693 272.272H157.957C158.01 272.976 158.271 273.541 158.741 273.968C159.21 274.395 159.786 274.608 160.469 274.608C161.45 274.608 162.143 274.197 162.549 273.376H164.517C164.25 274.187 163.765 274.853 163.061 275.376C162.367 275.888 161.503 276.144 160.469 276.144C159.626 276.144 158.869 275.957 158.197 275.584C157.535 275.2 157.013 274.667 156.629 273.984C156.255 273.291 156.069 272.491 156.069 271.584C156.069 270.677 156.25 269.883 156.613 269.2C156.986 268.507 157.503 267.973 158.165 267.6C158.837 267.227 159.605 267.04 160.469 267.04C161.301 267.04 162.042 267.221 162.693 267.584C163.343 267.947 163.85 268.459 164.213 269.12C164.575 269.771 164.757 270.523 164.757 271.376ZM162.853 270.8C162.842 270.128 162.602 269.589 162.133 269.184C161.663 268.779 161.082 268.576 160.389 268.576C159.759 268.576 159.221 268.779 158.773 269.184C158.325 269.579 158.058 270.117 157.973 270.8H162.853ZM174.6 268.08C174.312 267.525 173.912 267.109 173.4 266.832C172.888 266.544 172.296 266.4 171.624 266.4C170.888 266.4 170.232 266.565 169.656 266.896C169.08 267.227 168.626 267.696 168.296 268.304C167.976 268.912 167.816 269.616 167.816 270.416C167.816 271.216 167.976 271.925 168.296 272.544C168.626 273.152 169.08 273.621 169.656 273.952C170.232 274.283 170.888 274.448 171.624 274.448C172.616 274.448 173.421 274.171 174.04 273.616C174.658 273.061 175.037 272.309 175.176 271.36H171V269.904H177.128V271.328C177.01 272.192 176.701 272.987 176.2 273.712C175.709 274.437 175.064 275.019 174.264 275.456C173.474 275.883 172.594 276.096 171.624 276.096C170.578 276.096 169.624 275.856 168.76 275.376C167.896 274.885 167.208 274.208 166.696 273.344C166.194 272.48 165.944 271.504 165.944 270.416C165.944 269.328 166.194 268.352 166.696 267.488C167.208 266.624 167.896 265.952 168.76 265.472C169.634 264.981 170.589 264.736 171.624 264.736C172.808 264.736 173.858 265.029 174.776 265.616C175.704 266.192 176.376 267.013 176.792 268.08H174.6ZM178.319 271.552C178.319 270.667 178.5 269.883 178.863 269.2C179.236 268.517 179.737 267.989 180.367 267.616C181.007 267.232 181.711 267.04 182.479 267.04C183.172 267.04 183.775 267.179 184.287 267.456C184.809 267.723 185.225 268.059 185.535 268.464V267.184H187.375V276H185.535V274.688C185.225 275.104 184.804 275.451 184.271 275.728C183.737 276.005 183.129 276.144 182.447 276.144C181.689 276.144 180.996 275.952 180.367 275.568C179.737 275.173 179.236 274.629 178.863 273.936C178.5 273.232 178.319 272.437 178.319 271.552ZM185.535 271.584C185.535 270.976 185.407 270.448 185.151 270C184.905 269.552 184.58 269.211 184.175 268.976C183.769 268.741 183.332 268.624 182.863 268.624C182.393 268.624 181.956 268.741 181.551 268.976C181.145 269.2 180.815 269.536 180.559 269.984C180.313 270.421 180.191 270.944 180.191 271.552C180.191 272.16 180.313 272.693 180.559 273.152C180.815 273.611 181.145 273.963 181.551 274.208C181.967 274.443 182.404 274.56 182.863 274.56C183.332 274.56 183.769 274.443 184.175 274.208C184.58 273.973 184.905 273.632 185.151 273.184C185.407 272.725 185.535 272.192 185.535 271.584ZM200.442 267.04C201.136 267.04 201.754 267.184 202.298 267.472C202.853 267.76 203.285 268.187 203.594 268.752C203.914 269.317 204.074 270 204.074 270.8V276H202.266V271.072C202.266 270.283 202.069 269.68 201.674 269.264C201.28 268.837 200.741 268.624 200.058 268.624C199.376 268.624 198.832 268.837 198.426 269.264C198.032 269.68 197.834 270.283 197.834 271.072V276H196.026V271.072C196.026 270.283 195.829 269.68 195.434 269.264C195.04 268.837 194.501 268.624 193.818 268.624C193.136 268.624 192.592 268.837 192.186 269.264C191.792 269.68 191.594 270.283 191.594 271.072V276H189.77V267.184H191.594V268.192C191.893 267.829 192.272 267.547 192.73 267.344C193.189 267.141 193.68 267.04 194.202 267.04C194.906 267.04 195.536 267.189 196.09 267.488C196.645 267.787 197.072 268.219 197.37 268.784C197.637 268.251 198.053 267.829 198.618 267.52C199.184 267.2 199.792 267.04 200.442 267.04ZM217.067 267.04C217.761 267.04 218.379 267.184 218.923 267.472C219.478 267.76 219.91 268.187 220.219 268.752C220.539 269.317 220.699 270 220.699 270.8V276H218.891V271.072C218.891 270.283 218.694 269.68 218.299 269.264C217.905 268.837 217.366 268.624 216.683 268.624C216.001 268.624 215.457 268.837 215.051 269.264C214.657 269.68 214.459 270.283 214.459 271.072V276H212.651V271.072C212.651 270.283 212.454 269.68 212.059 269.264C211.665 268.837 211.126 268.624 210.443 268.624C209.761 268.624 209.217 268.837 208.811 269.264C208.417 269.68 208.219 270.283 208.219 271.072V276H206.395V267.184H208.219V268.192C208.518 267.829 208.897 267.547 209.355 267.344C209.814 267.141 210.305 267.04 210.827 267.04C211.531 267.04 212.161 267.189 212.715 267.488C213.27 267.787 213.697 268.219 213.995 268.784C214.262 268.251 214.678 267.829 215.243 267.52C215.809 267.2 216.417 267.04 217.067 267.04ZM222.412 271.552C222.412 270.667 222.594 269.883 222.956 269.2C223.33 268.517 223.831 267.989 224.46 267.616C225.1 267.232 225.804 267.04 226.572 267.04C227.266 267.04 227.868 267.179 228.38 267.456C228.903 267.723 229.319 268.059 229.628 268.464V267.184H231.468V276H229.628V274.688C229.319 275.104 228.898 275.451 228.364 275.728C227.831 276.005 227.223 276.144 226.54 276.144C225.783 276.144 225.09 275.952 224.46 275.568C223.831 275.173 223.33 274.629 222.956 273.936C222.594 273.232 222.412 272.437 222.412 271.552ZM229.628 271.584C229.628 270.976 229.5 270.448 229.244 270C228.999 269.552 228.674 269.211 228.268 268.976C227.863 268.741 227.426 268.624 226.956 268.624C226.487 268.624 226.05 268.741 225.644 268.976C225.239 269.2 224.908 269.536 224.652 269.984C224.407 270.421 224.284 270.944 224.284 271.552C224.284 272.16 224.407 272.693 224.652 273.152C224.908 273.611 225.239 273.963 225.644 274.208C226.06 274.443 226.498 274.56 226.956 274.56C227.426 274.56 227.863 274.443 228.268 274.208C228.674 273.973 228.999 273.632 229.244 273.184C229.5 272.725 229.628 272.192 229.628 271.584ZM234.6 276.112C234.269 276.112 233.992 276 233.768 275.776C233.544 275.552 233.432 275.275 233.432 274.944C233.432 274.613 233.544 274.336 233.768 274.112C233.992 273.888 234.269 273.776 234.6 273.776C234.92 273.776 235.192 273.888 235.416 274.112C235.64 274.336 235.752 274.613 235.752 274.944C235.752 275.275 235.64 275.552 235.416 275.776C235.192 276 234.92 276.112 234.6 276.112ZM241.387 276.112C240.641 276.112 239.969 275.984 239.371 275.728C238.774 275.461 238.305 275.088 237.963 274.608C237.622 274.128 237.451 273.568 237.451 272.928H239.403C239.446 273.408 239.633 273.803 239.963 274.112C240.305 274.421 240.779 274.576 241.387 274.576C242.017 274.576 242.507 274.427 242.859 274.128C243.211 273.819 243.387 273.424 243.387 272.944C243.387 272.571 243.275 272.267 243.051 272.032C242.838 271.797 242.566 271.616 242.235 271.488C241.915 271.36 241.467 271.221 240.891 271.072C240.166 270.88 239.574 270.688 239.115 270.496C238.667 270.293 238.283 269.984 237.963 269.568C237.643 269.152 237.483 268.597 237.483 267.904C237.483 267.264 237.643 266.704 237.963 266.224C238.283 265.744 238.731 265.376 239.307 265.12C239.883 264.864 240.55 264.736 241.307 264.736C242.385 264.736 243.265 265.008 243.947 265.552C244.641 266.085 245.025 266.821 245.099 267.76H243.083C243.051 267.355 242.859 267.008 242.507 266.72C242.155 266.432 241.691 266.288 241.115 266.288C240.593 266.288 240.166 266.421 239.835 266.688C239.505 266.955 239.339 267.339 239.339 267.84C239.339 268.181 239.441 268.464 239.643 268.688C239.857 268.901 240.123 269.072 240.443 269.2C240.763 269.328 241.201 269.467 241.755 269.616C242.491 269.819 243.089 270.021 243.547 270.224C244.017 270.427 244.411 270.741 244.731 271.168C245.062 271.584 245.227 272.144 245.227 272.848C245.227 273.413 245.073 273.947 244.763 274.448C244.465 274.949 244.022 275.355 243.435 275.664C242.859 275.963 242.177 276.112 241.387 276.112ZM261.86 264.88L258.564 276H256.5L254.164 267.584L251.684 276L249.636 276.016L246.484 264.88H248.42L250.724 273.936L253.22 264.88H255.268L257.588 273.888L259.908 264.88H261.86ZM270.068 273.728H265.412L264.612 276H262.708L266.692 264.864H268.804L272.788 276H270.868L270.068 273.728ZM269.556 272.24L267.748 267.072L265.924 272.24H269.556ZM282.296 268.192C282.296 268.757 282.163 269.291 281.896 269.792C281.63 270.293 281.203 270.704 280.616 271.024C280.03 271.333 279.278 271.488 278.36 271.488H276.344V276H274.52V264.88H278.36C279.214 264.88 279.934 265.029 280.52 265.328C281.118 265.616 281.56 266.011 281.848 266.512C282.147 267.013 282.296 267.573 282.296 268.192ZM278.36 270C279.054 270 279.571 269.845 279.912 269.536C280.254 269.216 280.424 268.768 280.424 268.192C280.424 266.976 279.736 266.368 278.36 266.368H276.344V270H278.36ZM293.78 276.64V278.336H284.852V276.64H293.78ZM302.578 276L300.018 271.552H298.626V276H296.802V264.88H300.642C301.495 264.88 302.215 265.029 302.802 265.328C303.399 265.627 303.842 266.027 304.13 266.528C304.428 267.029 304.578 267.589 304.578 268.208C304.578 268.933 304.364 269.595 303.938 270.192C303.522 270.779 302.876 271.179 302.002 271.392L304.754 276H302.578ZM298.626 270.096H300.642C301.324 270.096 301.836 269.925 302.178 269.584C302.53 269.243 302.706 268.784 302.706 268.208C302.706 267.632 302.535 267.184 302.194 266.864C301.852 266.533 301.335 266.368 300.642 266.368H298.626V270.096ZM313.615 273.728H308.959L308.159 276H306.255L310.239 264.864H312.351L316.335 276H314.415L313.615 273.728ZM313.103 272.24L311.295 267.072L309.471 272.24H313.103ZM325.251 264.88V266.368H322.291V276H320.467V266.368H317.491V264.88H325.251ZM328.922 266.352V269.616H332.762V271.104H328.922V274.512H333.242V276H327.098V264.864H333.242V266.352H328.922ZM339.521 278.976C338.476 277.973 337.67 276.699 337.105 275.152C336.55 273.605 336.273 271.947 336.273 270.176C336.273 268.363 336.572 266.651 337.169 265.04C337.777 263.429 338.668 262.101 339.841 261.056H341.729V261.232C340.502 262.363 339.58 263.717 338.961 265.296C338.342 266.875 338.033 268.501 338.033 270.176C338.033 271.787 338.321 273.344 338.897 274.848C339.473 276.352 340.31 277.669 341.409 278.8V278.976H339.521ZM362.114 273.808L360.178 278.224H358.994L360.13 273.808H362.114ZM390.255 273.808L388.319 278.224H387.135L388.271 273.808H390.255ZM418.661 273.808L416.725 278.224H415.541L416.677 273.808H418.661ZM445.479 278.976V278.8C446.577 277.669 447.415 276.352 447.991 274.848C448.567 273.344 448.855 271.787 448.855 270.176C448.855 268.501 448.545 266.875 447.927 265.296C447.308 263.717 446.385 262.363 445.159 261.232V261.056H447.047C448.22 262.101 449.105 263.429 449.703 265.04C450.311 266.651 450.615 268.363 450.615 270.176C450.615 271.947 450.332 273.605 449.767 275.152C449.212 276.699 448.412 277.973 447.367 278.976H445.479Z" fill="#0D0D0D"/>
<path d="M350.068 273.728H345.412L344.612 276H342.708L346.692 264.864H348.804L352.788 276H350.868L350.068 273.728ZM349.556 272.24L347.748 267.072L345.924 272.24H349.556ZM354.04 266V264.336H357.368V276H355.528V266H354.04Z" fill="#37B7C0"/>
<path d="M374.568 273.728H369.912L369.112 276H367.208L371.192 264.864H373.304L377.288 276H375.368L374.568 273.728ZM374.056 272.24L372.248 267.072L370.424 272.24H374.056ZM379.788 273.52C380.812 272.635 381.618 271.909 382.204 271.344C382.802 270.768 383.298 270.171 383.692 269.552C384.087 268.933 384.284 268.315 384.284 267.696C384.284 267.056 384.13 266.555 383.82 266.192C383.522 265.829 383.047 265.648 382.396 265.648C381.767 265.648 381.276 265.851 380.924 266.256C380.583 266.651 380.402 267.184 380.38 267.856H378.62C378.652 266.64 379.015 265.712 379.708 265.072C380.412 264.421 381.303 264.096 382.38 264.096C383.543 264.096 384.45 264.416 385.1 265.056C385.762 265.696 386.092 266.549 386.092 267.616C386.092 268.384 385.895 269.125 385.5 269.84C385.116 270.544 384.652 271.179 384.108 271.744C383.575 272.299 382.892 272.944 382.06 273.68L381.34 274.32H386.412V275.84H378.636V274.512L379.788 273.52Z" fill="#3765C0"/>
<path d="M402.709 273.728H398.053L397.253 276H395.349L399.333 264.864H401.445L405.429 276H403.509L402.709 273.728ZM402.197 272.24L400.389 267.072L398.565 272.24H402.197ZM406.889 267.216C406.953 266.224 407.332 265.451 408.025 264.896C408.729 264.341 409.625 264.064 410.713 264.064C411.46 264.064 412.105 264.197 412.649 264.464C413.193 264.731 413.604 265.093 413.881 265.552C414.158 266.011 414.297 266.528 414.297 267.104C414.297 267.765 414.121 268.331 413.769 268.8C413.417 269.269 412.996 269.584 412.505 269.744V269.808C413.134 270 413.625 270.352 413.977 270.864C414.329 271.365 414.505 272.011 414.505 272.8C414.505 273.429 414.361 273.989 414.073 274.48C413.785 274.971 413.358 275.36 412.793 275.648C412.228 275.925 411.55 276.064 410.761 276.064C409.609 276.064 408.66 275.771 407.913 275.184C407.177 274.587 406.782 273.733 406.729 272.624H408.489C408.532 273.189 408.75 273.653 409.145 274.016C409.54 274.368 410.073 274.544 410.745 274.544C411.396 274.544 411.897 274.368 412.249 274.016C412.601 273.653 412.777 273.189 412.777 272.624C412.777 271.877 412.537 271.349 412.057 271.04C411.588 270.72 410.862 270.56 409.881 270.56H409.465V269.056H409.897C410.761 269.045 411.417 268.901 411.865 268.624C412.324 268.347 412.553 267.909 412.553 267.312C412.553 266.8 412.388 266.395 412.057 266.096C411.726 265.787 411.257 265.632 410.649 265.632C410.052 265.632 409.588 265.787 409.257 266.096C408.926 266.395 408.729 266.768 408.665 267.216H406.889Z" fill="#E84763"/>
<path d="M431.115 273.728H426.459L425.659 276H423.755L427.739 264.864H429.851L433.835 276H431.915L431.115 273.728ZM430.603 272.24L428.795 267.072L426.971 272.24H430.603ZM435.103 273.568V272.192L440.479 264.48H442.687V271.984H444.175V273.568H442.687V276H440.895V273.568H435.103ZM440.975 266.336L437.199 271.984H440.975V266.336Z" fill="#8151B2"/>
<mask id="path-5-inside-1_85_318" fill="white">
<path d="M178 63H338V103H178V63Z"/>
</mask>
<path d="M178 63H338V103H178V63Z" fill="white"/>
<path d="M178 63V61H176V63H178ZM338 63H340V61H338V63ZM178 63V65H338V63V61H178V63ZM338 63H336V103H338H340V63H338ZM178 103H180V63H178H176V103H178Z" fill="#37B7C0" mask="url(#path-5-inside-1_85_318)"/>
<path d="M243.091 90.112C242.344 90.112 241.672 89.984 241.075 89.728C240.477 89.4613 240.008 89.088 239.667 88.608C239.325 88.128 239.155 87.568 239.155 86.928H241.107C241.149 87.408 241.336 87.8027 241.667 88.112C242.008 88.4213 242.483 88.576 243.091 88.576C243.72 88.576 244.211 88.4267 244.563 88.128C244.915 87.8187 245.091 87.424 245.091 86.944C245.091 86.5707 244.979 86.2667 244.755 86.032C244.541 85.7973 244.269 85.616 243.939 85.488C243.619 85.36 243.171 85.2213 242.595 85.072C241.869 84.88 241.277 84.688 240.819 84.496C240.371 84.2933 239.987 83.984 239.667 83.568C239.347 83.152 239.187 82.5973 239.187 81.904C239.187 81.264 239.347 80.704 239.667 80.224C239.987 79.744 240.435 79.376 241.011 79.12C241.587 78.864 242.253 78.736 243.011 78.736C244.088 78.736 244.968 79.008 245.651 79.552C246.344 80.0853 246.728 80.8213 246.803 81.76H244.787C244.755 81.3547 244.563 81.008 244.211 80.72C243.859 80.432 243.395 80.288 242.819 80.288C242.296 80.288 241.869 80.4213 241.539 80.688C241.208 80.9547 241.043 81.3387 241.043 81.84C241.043 82.1813 241.144 82.464 241.347 82.688C241.56 82.9013 241.827 83.072 242.147 83.2C242.467 83.328 242.904 83.4667 243.459 83.616C244.195 83.8187 244.792 84.0213 245.251 84.224C245.72 84.4267 246.115 84.7413 246.435 85.168C246.765 85.584 246.931 86.144 246.931 86.848C246.931 87.4133 246.776 87.9467 246.467 88.448C246.168 88.9493 245.725 89.3547 245.139 89.664C244.563 89.9627 243.88 90.112 243.091 90.112ZM254.155 90.112C253.12 90.112 252.165 89.872 251.291 89.392C250.427 88.9013 249.739 88.224 249.227 87.36C248.725 86.4853 248.475 85.504 248.475 84.416C248.475 83.328 248.725 82.352 249.227 81.488C249.739 80.624 250.427 79.952 251.291 79.472C252.165 78.9813 253.12 78.736 254.155 78.736C255.2 78.736 256.155 78.9813 257.019 79.472C257.893 79.952 258.581 80.624 259.083 81.488C259.584 82.352 259.835 83.328 259.835 84.416C259.835 85.504 259.584 86.4853 259.083 87.36C258.581 88.224 257.893 88.9013 257.019 89.392C256.155 89.872 255.2 90.112 254.155 90.112ZM254.155 88.528C254.891 88.528 255.547 88.3627 256.123 88.032C256.699 87.6907 257.147 87.2107 257.467 86.592C257.797 85.9627 257.963 85.2373 257.963 84.416C257.963 83.5947 257.797 82.8747 257.467 82.256C257.147 81.6373 256.699 81.1627 256.123 80.832C255.547 80.5013 254.891 80.336 254.155 80.336C253.419 80.336 252.763 80.5013 252.187 80.832C251.611 81.1627 251.157 81.6373 250.827 82.256C250.507 82.8747 250.347 83.5947 250.347 84.416C250.347 85.2373 250.507 85.9627 250.827 86.592C251.157 87.2107 251.611 87.6907 252.187 88.032C252.763 88.3627 253.419 88.528 254.155 88.528ZM268.174 78.88V80.368H263.454V83.648H267.134V85.136H263.454V90H261.63V78.88H268.174ZM275.64 90L273.08 85.552H271.688V90H269.864V78.88H273.704C274.557 78.88 275.277 79.0293 275.864 79.328C276.461 79.6267 276.904 80.0267 277.192 80.528C277.491 81.0293 277.64 81.5893 277.64 82.208C277.64 82.9333 277.427 83.5947 277 84.192C276.584 84.7787 275.939 85.1787 275.064 85.392L277.816 90H275.64ZM271.688 84.096H273.704C274.387 84.096 274.899 83.9253 275.24 83.584C275.592 83.2427 275.768 82.784 275.768 82.208C275.768 81.632 275.597 81.184 275.256 80.864C274.915 80.5333 274.397 80.368 273.704 80.368H271.688V84.096Z" fill="#0D0D0D"/>
<rect x="175" y="60" width="8" height="8" fill="#37B7C0"/>
<rect x="333" y="60" width="8" height="8" fill="#37B7C0"/>
<mask id="path-10-inside-2_85_318" fill="white">
<path d="M178 103H338V143H178V103Z"/>
</mask>
<path d="M178 103H338V143H178V103Z" fill="white"/>
<path d="M178 103V101H176V103H178ZM338 103H340V101H338V103ZM178 103V105H338V103V101H178V103ZM338 103H336V143H338H340V103H338ZM178 143H180V103H178H176V143H178Z" fill="#3765C0" mask="url(#path-10-inside-2_85_318)"/>
<path d="M215.358 124.016C215.358 122.171 215.668 120.731 216.286 119.696C216.916 118.651 217.993 118.128 219.518 118.128C221.044 118.128 222.116 118.651 222.734 119.696C223.364 120.731 223.678 122.171 223.678 124.016C223.678 125.883 223.364 127.344 222.734 128.4C222.116 129.445 221.044 129.968 219.518 129.968C217.993 129.968 216.916 129.445 216.286 128.4C215.668 127.344 215.358 125.883 215.358 124.016ZM221.886 124.016C221.886 123.152 221.828 122.421 221.71 121.824C221.604 121.227 221.38 120.741 221.038 120.368C220.697 119.984 220.19 119.792 219.518 119.792C218.846 119.792 218.34 119.984 217.998 120.368C217.657 120.741 217.428 121.227 217.31 121.824C217.204 122.421 217.15 123.152 217.15 124.016C217.15 124.912 217.204 125.664 217.31 126.272C217.417 126.88 217.641 127.371 217.982 127.744C218.334 128.117 218.846 128.304 219.518 128.304C220.19 128.304 220.697 128.117 221.038 127.744C221.39 127.371 221.62 126.88 221.726 126.272C221.833 125.664 221.886 124.912 221.886 124.016ZM225.368 120V118.336H228.696V130H226.856V120H225.368ZM237.362 114.896L233.01 132.8H231.218L235.554 114.896H237.362ZM239.421 124.016C239.421 122.171 239.73 120.731 240.349 119.696C240.978 118.651 242.056 118.128 243.581 118.128C245.106 118.128 246.178 118.651 246.797 119.696C247.426 120.731 247.741 122.171 247.741 124.016C247.741 125.883 247.426 127.344 246.797 128.4C246.178 129.445 245.106 129.968 243.581 129.968C242.056 129.968 240.978 129.445 240.349 128.4C239.73 127.344 239.421 125.883 239.421 124.016ZM245.949 124.016C245.949 123.152 245.89 122.421 245.773 121.824C245.666 121.227 245.442 120.741 245.101 120.368C244.76 119.984 244.253 119.792 243.581 119.792C242.909 119.792 242.402 119.984 242.061 120.368C241.72 120.741 241.49 121.227 241.373 121.824C241.266 122.421 241.213 123.152 241.213 124.016C241.213 124.912 241.266 125.664 241.373 126.272C241.48 126.88 241.704 127.371 242.045 127.744C242.397 128.117 242.909 128.304 243.581 128.304C244.253 128.304 244.76 128.117 245.101 127.744C245.453 127.371 245.682 126.88 245.789 126.272C245.896 125.664 245.949 124.912 245.949 124.016ZM249.431 120V118.336H252.759V130H250.919V120H249.431ZM261.425 114.896L257.073 132.8H255.281L259.617 114.896H261.425ZM264.491 127.52C265.515 126.635 266.321 125.909 266.907 125.344C267.505 124.768 268.001 124.171 268.395 123.552C268.79 122.933 268.987 122.315 268.987 121.696C268.987 121.056 268.833 120.555 268.523 120.192C268.225 119.829 267.75 119.648 267.099 119.648C266.47 119.648 265.979 119.851 265.627 120.256C265.286 120.651 265.105 121.184 265.083 121.856H263.323C263.355 120.64 263.718 119.712 264.411 119.072C265.115 118.421 266.006 118.096 267.083 118.096C268.246 118.096 269.153 118.416 269.803 119.056C270.465 119.696 270.795 120.549 270.795 121.616C270.795 122.384 270.598 123.125 270.203 123.84C269.819 124.544 269.355 125.179 268.811 125.744C268.278 126.299 267.595 126.944 266.763 127.68L266.043 128.32H271.115V129.84H263.339V128.512L264.491 127.52ZM272.718 124.016C272.718 122.171 273.027 120.731 273.646 119.696C274.275 118.651 275.352 118.128 276.878 118.128C278.403 118.128 279.475 118.651 280.094 119.696C280.723 120.731 281.038 122.171 281.038 124.016C281.038 125.883 280.723 127.344 280.094 128.4C279.475 129.445 278.403 129.968 276.878 129.968C275.352 129.968 274.275 129.445 273.646 128.4C273.027 127.344 272.718 125.883 272.718 124.016ZM279.246 124.016C279.246 123.152 279.187 122.421 279.07 121.824C278.963 121.227 278.739 120.741 278.398 120.368C278.056 119.984 277.55 119.792 276.878 119.792C276.206 119.792 275.699 119.984 275.358 120.368C275.016 120.741 274.787 121.227 274.67 121.824C274.563 122.421 274.51 123.152 274.51 124.016C274.51 124.912 274.563 125.664 274.67 126.272C274.776 126.88 275 127.371 275.342 127.744C275.694 128.117 276.206 128.304 276.878 128.304C277.55 128.304 278.056 128.117 278.398 127.744C278.75 127.371 278.979 126.88 279.086 126.272C279.192 125.664 279.246 124.912 279.246 124.016ZM283.976 127.52C285 126.635 285.805 125.909 286.392 125.344C286.989 124.768 287.485 124.171 287.88 123.552C288.274 122.933 288.472 122.315 288.472 121.696C288.472 121.056 288.317 120.555 288.008 120.192C287.709 119.829 287.234 119.648 286.584 119.648C285.954 119.648 285.464 119.851 285.112 120.256C284.77 120.651 284.589 121.184 284.568 121.856H282.808C282.84 120.64 283.202 119.712 283.896 119.072C284.6 118.421 285.49 118.096 286.568 118.096C287.73 118.096 288.637 118.416 289.288 119.056C289.949 119.696 290.28 120.549 290.28 121.616C290.28 122.384 290.082 123.125 289.688 123.84C289.304 124.544 288.84 125.179 288.296 125.744C287.762 126.299 287.08 126.944 286.248 127.68L285.528 128.32H290.6V129.84H282.824V128.512L283.976 127.52ZM291.978 127.568V126.192L297.354 118.48H299.562V125.984H301.05V127.568H299.562V130H297.77V127.568H291.978ZM297.85 120.336L294.074 125.984H297.85V120.336Z" fill="#0D0D0D"/>
<rect x="175" y="100" width="8" height="8" fill="#3765C0"/>
<rect x="333" y="100" width="8" height="8" fill="#3765C0"/>
<mask id="path-15-inside-3_85_318" fill="white">
<path d="M178 143H338V183H178V143Z"/>
</mask>
<path d="M178 143H338V183H178V143Z" fill="white"/>
<path d="M178 143V141H176V143H178ZM338 143H340V141H338V143ZM178 143V145H338V143V141H178V143ZM338 143H336V183H338H340V143H338ZM178 183H180V143H178H176V183H178Z" fill="#E84763" mask="url(#path-15-inside-3_85_318)"/>
<path d="M216.123 161.216C216.187 160.224 216.566 159.451 217.259 158.896C217.963 158.341 218.859 158.064 219.947 158.064C220.694 158.064 221.339 158.197 221.883 158.464C222.427 158.731 222.838 159.093 223.115 159.552C223.393 160.011 223.531 160.528 223.531 161.104C223.531 161.765 223.355 162.331 223.003 162.8C222.651 163.269 222.23 163.584 221.739 163.744V163.808C222.369 164 222.859 164.352 223.211 164.864C223.563 165.365 223.739 166.011 223.739 166.8C223.739 167.429 223.595 167.989 223.307 168.48C223.019 168.971 222.593 169.36 222.027 169.648C221.462 169.925 220.785 170.064 219.995 170.064C218.843 170.064 217.894 169.771 217.147 169.184C216.411 168.587 216.017 167.733 215.963 166.624H217.723C217.766 167.189 217.985 167.653 218.379 168.016C218.774 168.368 219.307 168.544 219.979 168.544C220.63 168.544 221.131 168.368 221.483 168.016C221.835 167.653 222.011 167.189 222.011 166.624C222.011 165.877 221.771 165.349 221.291 165.04C220.822 164.72 220.097 164.56 219.115 164.56H218.699V163.056H219.131C219.995 163.045 220.651 162.901 221.099 162.624C221.558 162.347 221.787 161.909 221.787 161.312C221.787 160.8 221.622 160.395 221.291 160.096C220.961 159.787 220.491 159.632 219.883 159.632C219.286 159.632 218.822 159.787 218.491 160.096C218.161 160.395 217.963 160.768 217.899 161.216H216.123ZM225.415 160V158.336H228.743V170H226.903V160H225.415ZM237.409 154.896L233.057 172.8H231.265L235.601 154.896H237.409ZM239.228 160V158.336H242.556V170H240.716V160H239.228ZM246.07 167.52C247.094 166.635 247.899 165.909 248.486 165.344C249.083 164.768 249.579 164.171 249.974 163.552C250.368 162.933 250.566 162.315 250.566 161.696C250.566 161.056 250.411 160.555 250.102 160.192C249.803 159.829 249.328 159.648 248.678 159.648C248.048 159.648 247.558 159.851 247.206 160.256C246.864 160.651 246.683 161.184 246.662 161.856H244.902C244.934 160.64 245.296 159.712 245.99 159.072C246.694 158.421 247.584 158.096 248.662 158.096C249.824 158.096 250.731 158.416 251.382 159.056C252.043 159.696 252.374 160.549 252.374 161.616C252.374 162.384 252.176 163.125 251.782 163.84C251.398 164.544 250.934 165.179 250.39 165.744C249.856 166.299 249.174 166.944 248.342 167.68L247.622 168.32H252.694V169.84H244.918V168.512L246.07 167.52ZM260.456 154.896L256.104 172.8H254.312L258.648 154.896H260.456ZM263.523 167.52C264.547 166.635 265.352 165.909 265.939 165.344C266.536 164.768 267.032 164.171 267.427 163.552C267.821 162.933 268.019 162.315 268.019 161.696C268.019 161.056 267.864 160.555 267.555 160.192C267.256 159.829 266.781 159.648 266.131 159.648C265.501 159.648 265.011 159.851 264.659 160.256C264.317 160.651 264.136 161.184 264.115 161.856H262.355C262.387 160.64 262.749 159.712 263.443 159.072C264.147 158.421 265.037 158.096 266.115 158.096C267.277 158.096 268.184 158.416 268.835 159.056C269.496 159.696 269.827 160.549 269.827 161.616C269.827 162.384 269.629 163.125 269.235 163.84C268.851 164.544 268.387 165.179 267.843 165.744C267.309 166.299 266.627 166.944 265.795 167.68L265.075 168.32H270.147V169.84H262.371V168.512L263.523 167.52ZM271.749 164.016C271.749 162.171 272.058 160.731 272.677 159.696C273.306 158.651 274.384 158.128 275.909 158.128C277.434 158.128 278.506 158.651 279.125 159.696C279.754 160.731 280.069 162.171 280.069 164.016C280.069 165.883 279.754 167.344 279.125 168.4C278.506 169.445 277.434 169.968 275.909 169.968C274.384 169.968 273.306 169.445 272.677 168.4C272.058 167.344 271.749 165.883 271.749 164.016ZM278.277 164.016C278.277 163.152 278.218 162.421 278.101 161.824C277.994 161.227 277.77 160.741 277.429 160.368C277.088 159.984 276.581 159.792 275.909 159.792C275.237 159.792 274.73 159.984 274.389 160.368C274.048 160.741 273.818 161.227 273.701 161.824C273.594 162.421 273.541 163.152 273.541 164.016C273.541 164.912 273.594 165.664 273.701 166.272C273.808 166.88 274.032 167.371 274.373 167.744C274.725 168.117 275.237 168.304 275.909 168.304C276.581 168.304 277.088 168.117 277.429 167.744C277.781 167.371 278.01 166.88 278.117 166.272C278.224 165.664 278.277 164.912 278.277 164.016ZM281.967 161.216C282.031 160.224 282.41 159.451 283.103 158.896C283.807 158.341 284.703 158.064 285.791 158.064C286.538 158.064 287.183 158.197 287.727 158.464C288.271 158.731 288.682 159.093 288.959 159.552C289.236 160.011 289.375 160.528 289.375 161.104C289.375 161.765 289.199 162.331 288.847 162.8C288.495 163.269 288.074 163.584 287.583 163.744V163.808C288.212 164 288.703 164.352 289.055 164.864C289.407 165.365 289.583 166.011 289.583 166.8C289.583 167.429 289.439 167.989 289.151 168.48C288.863 168.971 288.436 169.36 287.871 169.648C287.306 169.925 286.628 170.064 285.839 170.064C284.687 170.064 283.738 169.771 282.991 169.184C282.255 168.587 281.86 167.733 281.807 166.624H283.567C283.61 167.189 283.828 167.653 284.223 168.016C284.618 168.368 285.151 168.544 285.823 168.544C286.474 168.544 286.975 168.368 287.327 168.016C287.679 167.653 287.855 167.189 287.855 166.624C287.855 165.877 287.615 165.349 287.135 165.04C286.666 164.72 285.94 164.56 284.959 164.56H284.543V163.056H284.975C285.839 163.045 286.495 162.901 286.943 162.624C287.402 162.347 287.631 161.909 287.631 161.312C287.631 160.8 287.466 160.395 287.135 160.096C286.804 159.787 286.335 159.632 285.727 159.632C285.13 159.632 284.666 159.787 284.335 160.096C284.004 160.395 283.807 160.768 283.743 161.216H281.967ZM297.771 161.04C297.654 160.549 297.44 160.181 297.131 159.936C296.822 159.691 296.39 159.568 295.835 159.568C294.992 159.568 294.363 159.893 293.947 160.544C293.531 161.184 293.312 162.251 293.291 163.744C293.568 163.275 293.974 162.912 294.507 162.656C295.04 162.4 295.616 162.272 296.235 162.272C296.939 162.272 297.558 162.427 298.091 162.736C298.635 163.035 299.056 163.472 299.355 164.048C299.664 164.624 299.819 165.312 299.819 166.112C299.819 166.859 299.67 167.525 299.371 168.112C299.083 168.699 298.651 169.163 298.075 169.504C297.499 169.835 296.806 170 295.995 170C294.896 170 294.032 169.76 293.403 169.28C292.784 168.789 292.347 168.101 292.091 167.216C291.846 166.331 291.723 165.227 291.723 163.904C291.723 160 293.099 158.048 295.851 158.048C296.918 158.048 297.755 158.336 298.363 158.912C298.982 159.488 299.344 160.197 299.451 161.04H297.771ZM295.835 163.808C295.184 163.808 294.63 164.005 294.171 164.4C293.723 164.784 293.499 165.344 293.499 166.08C293.499 166.816 293.707 167.403 294.123 167.84C294.55 168.267 295.142 168.48 295.899 168.48C296.571 168.48 297.099 168.272 297.483 167.856C297.878 167.44 298.075 166.885 298.075 166.192C298.075 165.467 297.883 164.891 297.499 164.464C297.126 164.027 296.571 163.808 295.835 163.808Z" fill="#0D0D0D"/>
<rect x="175" y="140" width="8" height="8" fill="#E84763"/>
<rect x="333" y="140" width="8" height="8" fill="#E84763"/>
<mask id="path-20-inside-4_85_318" fill="white">
<path d="M178 183H338V223H178V183Z"/>
</mask>
<path d="M178 183H338V223H178V183Z" fill="white"/>
<path d="M178 183V181H176V183H178ZM338 183H340V181H338V183ZM338 223V225H340V223H338ZM178 223H176V225H178V223ZM178 183V185H338V183V181H178V183ZM338 183H336V223H338H340V183H338ZM338 223V221H178V223V225H338V223ZM178 223H180V183H178H176V223H178Z" fill="#8151B2" mask="url(#path-20-inside-4_85_318)"/>
<path d="M247.123 200.216C247.187 199.224 247.566 198.451 248.259 197.896C248.963 197.341 249.859 197.064 250.947 197.064C251.694 197.064 252.339 197.197 252.883 197.464C253.427 197.731 253.838 198.093 254.115 198.552C254.393 199.011 254.531 199.528 254.531 200.104C254.531 200.765 254.355 201.331 254.003 201.8C253.651 202.269 253.23 202.584 252.739 202.744V202.808C253.369 203 253.859 203.352 254.211 203.864C254.563 204.365 254.739 205.011 254.739 205.8C254.739 206.429 254.595 206.989 254.307 207.48C254.019 207.971 253.593 208.36 253.027 208.648C252.462 208.925 251.785 209.064 250.995 209.064C249.843 209.064 248.894 208.771 248.147 208.184C247.411 207.587 247.017 206.733 246.963 205.624H248.723C248.766 206.189 248.985 206.653 249.379 207.016C249.774 207.368 250.307 207.544 250.979 207.544C251.63 207.544 252.131 207.368 252.483 207.016C252.835 206.653 253.011 206.189 253.011 205.624C253.011 204.877 252.771 204.349 252.291 204.04C251.822 203.72 251.097 203.56 250.115 203.56H249.699V202.056H250.131C250.995 202.045 251.651 201.901 252.099 201.624C252.558 201.347 252.787 200.909 252.787 200.312C252.787 199.8 252.622 199.395 252.291 199.096C251.961 198.787 251.491 198.632 250.883 198.632C250.286 198.632 249.822 198.787 249.491 199.096C249.161 199.395 248.963 199.768 248.899 200.216H247.123ZM268.607 197.88V209H266.783V201.384L263.391 209H262.127L258.719 201.384V209H256.895V197.88H258.863L262.767 206.6L266.655 197.88H268.607Z" fill="#0D0D0D"/>
<rect x="175" y="180" width="8" height="8" fill="#8151B2"/>
<rect x="175" y="218" width="8" height="8" fill="#8151B2"/>
<rect x="333" y="180" width="8" height="8" fill="#8151B2"/>
<rect x="333" y="218" width="8" height="8" fill="#8151B2"/>
</svg>
