<svg width="515" height="350" viewBox="0 0 515 350" fill="none" xmlns="http://www.w3.org/2000/svg">
<rect x="51" y="231" width="46" height="38" fill="white"/>
<rect x="51" y="231" width="46" height="38" stroke="#D7D7D7" stroke-width="2"/>
<path d="M72.856 245.168C72.3013 245.168 71.8907 245.275 71.624 245.488C71.3573 245.701 71.1813 246.059 71.096 246.56L70.984 247.184H72.616L72.36 248.672H70.728L69.432 256H67.592L68.888 248.672H67.848L68.104 247.184H69.144L69.256 246.56C69.4373 245.547 69.8373 244.811 70.456 244.352C71.0747 243.883 71.96 243.648 73.112 243.648L72.856 245.168ZM77.2565 251.52L79.3045 256H77.2405L75.8645 253.008L73.5445 256H71.6405L75.2565 251.664L73.1925 247.184H75.2565L76.6325 250.176L78.9525 247.184H80.8565L77.2565 251.52Z" fill="#0D0D0D"/>
<rect x="107" y="231" width="357" height="38" fill="white"/>
<rect x="107" y="231" width="357" height="38" stroke="#399667" stroke-width="2"/>
<path d="M126.893 247.632V249.168H118.381V247.632H126.893ZM126.893 251.264V252.8H118.381V251.264H126.893ZM135.988 250.288C136.585 250.395 137.092 250.709 137.508 251.232C137.924 251.755 138.132 252.347 138.132 253.008C138.132 253.573 137.983 254.085 137.684 254.544C137.396 254.992 136.975 255.349 136.42 255.616C135.865 255.872 135.22 256 134.484 256H130.036V244.88H134.276C135.033 244.88 135.684 245.008 136.228 245.264C136.772 245.52 137.183 245.867 137.46 246.304C137.737 246.731 137.876 247.211 137.876 247.744C137.876 248.384 137.705 248.917 137.364 249.344C137.023 249.771 136.564 250.085 135.988 250.288ZM131.86 249.552H134.116C134.713 249.552 135.177 249.419 135.508 249.152C135.849 248.875 136.02 248.48 136.02 247.968C136.02 247.467 135.849 247.077 135.508 246.8C135.177 246.512 134.713 246.368 134.116 246.368H131.86V249.552ZM134.324 254.512C134.943 254.512 135.428 254.363 135.78 254.064C136.132 253.765 136.308 253.349 136.308 252.816C136.308 252.272 136.121 251.84 135.748 251.52C135.375 251.2 134.879 251.04 134.26 251.04H131.86V254.512H134.324ZM141.938 244.16V256H140.114V244.16H141.938ZM152.317 247.184V256H150.493V254.96C150.205 255.323 149.826 255.611 149.357 255.824C148.898 256.027 148.407 256.128 147.885 256.128C147.191 256.128 146.567 255.984 146.013 255.696C145.469 255.408 145.037 254.981 144.717 254.416C144.407 253.851 144.253 253.168 144.253 252.368V247.184H146.061V252.096C146.061 252.885 146.258 253.493 146.653 253.92C147.047 254.336 147.586 254.544 148.269 254.544C148.951 254.544 149.49 254.336 149.885 253.92C150.29 253.493 150.493 252.885 150.493 252.096V247.184H152.317ZM162.803 251.376C162.803 251.707 162.782 252.005 162.739 252.272H156.003C156.057 252.976 156.318 253.541 156.787 253.968C157.257 254.395 157.833 254.608 158.515 254.608C159.497 254.608 160.19 254.197 160.595 253.376H162.563C162.297 254.187 161.811 254.853 161.107 255.376C160.414 255.888 159.55 256.144 158.515 256.144C157.673 256.144 156.915 255.957 156.243 255.584C155.582 255.2 155.059 254.667 154.675 253.984C154.302 253.291 154.115 252.491 154.115 251.584C154.115 250.677 154.297 249.883 154.659 249.2C155.033 248.507 155.55 247.973 156.211 247.6C156.883 247.227 157.651 247.04 158.515 247.04C159.347 247.04 160.089 247.221 160.739 247.584C161.39 247.947 161.897 248.459 162.259 249.12C162.622 249.771 162.803 250.523 162.803 251.376ZM160.899 250.8C160.889 250.128 160.649 249.589 160.179 249.184C159.71 248.779 159.129 248.576 158.435 248.576C157.806 248.576 157.267 248.779 156.819 249.184C156.371 249.579 156.105 250.117 156.019 250.8H160.899ZM172.646 248.08C172.358 247.525 171.958 247.109 171.446 246.832C170.934 246.544 170.342 246.4 169.67 246.4C168.934 246.4 168.278 246.565 167.702 246.896C167.126 247.227 166.673 247.696 166.342 248.304C166.022 248.912 165.862 249.616 165.862 250.416C165.862 251.216 166.022 251.925 166.342 252.544C166.673 253.152 167.126 253.621 167.702 253.952C168.278 254.283 168.934 254.448 169.67 254.448C170.662 254.448 171.468 254.171 172.086 253.616C172.705 253.061 173.084 252.309 173.222 251.36H169.046V249.904H175.174V251.328C175.057 252.192 174.748 252.987 174.246 253.712C173.756 254.437 173.11 255.019 172.31 255.456C171.521 255.883 170.641 256.096 169.67 256.096C168.625 256.096 167.67 255.856 166.806 255.376C165.942 254.885 165.254 254.208 164.742 253.344C164.241 252.48 163.99 251.504 163.99 250.416C163.99 249.328 164.241 248.352 164.742 247.488C165.254 246.624 165.942 245.952 166.806 245.472C167.681 244.981 168.636 244.736 169.67 244.736C170.854 244.736 171.905 245.029 172.822 245.616C173.75 246.192 174.422 247.013 174.838 248.08H172.646ZM176.365 251.552C176.365 250.667 176.547 249.883 176.909 249.2C177.283 248.517 177.784 247.989 178.413 247.616C179.053 247.232 179.757 247.04 180.525 247.04C181.219 247.04 181.821 247.179 182.333 247.456C182.856 247.723 183.272 248.059 183.581 248.464V247.184H185.421V256H183.581V254.688C183.272 255.104 182.851 255.451 182.317 255.728C181.784 256.005 181.176 256.144 180.493 256.144C179.736 256.144 179.043 255.952 178.413 255.568C177.784 255.173 177.283 254.629 176.909 253.936C176.547 253.232 176.365 252.437 176.365 251.552ZM183.581 251.584C183.581 250.976 183.453 250.448 183.197 250C182.952 249.552 182.627 249.211 182.221 248.976C181.816 248.741 181.379 248.624 180.909 248.624C180.44 248.624 180.003 248.741 179.597 248.976C179.192 249.2 178.861 249.536 178.605 249.984C178.36 250.421 178.237 250.944 178.237 251.552C178.237 252.16 178.36 252.693 178.605 253.152C178.861 253.611 179.192 253.963 179.597 254.208C180.013 254.443 180.451 254.56 180.909 254.56C181.379 254.56 181.816 254.443 182.221 254.208C182.627 253.973 182.952 253.632 183.197 253.184C183.453 252.725 183.581 252.192 183.581 251.584ZM198.489 247.04C199.183 247.04 199.801 247.184 200.345 247.472C200.9 247.76 201.332 248.187 201.641 248.752C201.961 249.317 202.121 250 202.121 250.8V256H200.313V251.072C200.313 250.283 200.116 249.68 199.721 249.264C199.327 248.837 198.788 248.624 198.105 248.624C197.423 248.624 196.879 248.837 196.473 249.264C196.079 249.68 195.881 250.283 195.881 251.072V256H194.073V251.072C194.073 250.283 193.876 249.68 193.481 249.264C193.087 248.837 192.548 248.624 191.865 248.624C191.183 248.624 190.639 248.837 190.233 249.264C189.839 249.68 189.641 250.283 189.641 251.072V256H187.817V247.184H189.641V248.192C189.94 247.829 190.319 247.547 190.777 247.344C191.236 247.141 191.727 247.04 192.249 247.04C192.953 247.04 193.583 247.189 194.137 247.488C194.692 247.787 195.119 248.219 195.417 248.784C195.684 248.251 196.1 247.829 196.665 247.52C197.231 247.2 197.839 247.04 198.489 247.04ZM215.114 247.04C215.808 247.04 216.426 247.184 216.97 247.472C217.525 247.76 217.957 248.187 218.266 248.752C218.586 249.317 218.746 250 218.746 250.8V256H216.938V251.072C216.938 250.283 216.741 249.68 216.346 249.264C215.952 248.837 215.413 248.624 214.73 248.624C214.048 248.624 213.504 248.837 213.098 249.264C212.704 249.68 212.506 250.283 212.506 251.072V256H210.698V251.072C210.698 250.283 210.501 249.68 210.106 249.264C209.712 248.837 209.173 248.624 208.49 248.624C207.808 248.624 207.264 248.837 206.858 249.264C206.464 249.68 206.266 250.283 206.266 251.072V256H204.442V247.184H206.266V248.192C206.565 247.829 206.944 247.547 207.402 247.344C207.861 247.141 208.352 247.04 208.874 247.04C209.578 247.04 210.208 247.189 210.762 247.488C211.317 247.787 211.744 248.219 212.042 248.784C212.309 248.251 212.725 247.829 213.29 247.52C213.856 247.2 214.464 247.04 215.114 247.04ZM220.459 251.552C220.459 250.667 220.641 249.883 221.003 249.2C221.377 248.517 221.878 247.989 222.507 247.616C223.147 247.232 223.851 247.04 224.619 247.04C225.313 247.04 225.915 247.179 226.427 247.456C226.95 247.723 227.366 248.059 227.675 248.464V247.184H229.515V256H227.675V254.688C227.366 255.104 226.945 255.451 226.411 255.728C225.878 256.005 225.27 256.144 224.587 256.144C223.83 256.144 223.137 255.952 222.507 255.568C221.878 255.173 221.377 254.629 221.003 253.936C220.641 253.232 220.459 252.437 220.459 251.552ZM227.675 251.584C227.675 250.976 227.547 250.448 227.291 250C227.046 249.552 226.721 249.211 226.315 248.976C225.91 248.741 225.473 248.624 225.003 248.624C224.534 248.624 224.097 248.741 223.691 248.976C223.286 249.2 222.955 249.536 222.699 249.984C222.454 250.421 222.331 250.944 222.331 251.552C222.331 252.16 222.454 252.693 222.699 253.152C222.955 253.611 223.286 253.963 223.691 254.208C224.107 254.443 224.545 254.56 225.003 254.56C225.473 254.56 225.91 254.443 226.315 254.208C226.721 253.973 227.046 253.632 227.291 253.184C227.547 252.725 227.675 252.192 227.675 251.584ZM232.647 256.112C232.316 256.112 232.039 256 231.815 255.776C231.591 255.552 231.479 255.275 231.479 254.944C231.479 254.613 231.591 254.336 231.815 254.112C232.039 253.888 232.316 253.776 232.647 253.776C232.967 253.776 233.239 253.888 233.463 254.112C233.687 254.336 233.799 254.613 233.799 254.944C233.799 255.275 233.687 255.552 233.463 255.776C233.239 256 232.967 256.112 232.647 256.112ZM242.314 244.88V246.368H237.594V249.648H241.274V251.136H237.594V256H235.77V244.88H242.314ZM249.077 256.112C248.042 256.112 247.087 255.872 246.213 255.392C245.349 254.901 244.661 254.224 244.149 253.36C243.647 252.485 243.397 251.504 243.397 250.416C243.397 249.328 243.647 248.352 244.149 247.488C244.661 246.624 245.349 245.952 246.213 245.472C247.087 244.981 248.042 244.736 249.077 244.736C250.122 244.736 251.077 244.981 251.941 245.472C252.815 245.952 253.503 246.624 254.005 247.488C254.506 248.352 254.757 249.328 254.757 250.416C254.757 251.504 254.506 252.485 254.005 253.36C253.503 254.224 252.815 254.901 251.941 255.392C251.077 255.872 250.122 256.112 249.077 256.112ZM249.077 254.528C249.813 254.528 250.469 254.363 251.045 254.032C251.621 253.691 252.069 253.211 252.389 252.592C252.719 251.963 252.885 251.237 252.885 250.416C252.885 249.595 252.719 248.875 252.389 248.256C252.069 247.637 251.621 247.163 251.045 246.832C250.469 246.501 249.813 246.336 249.077 246.336C248.341 246.336 247.685 246.501 247.109 246.832C246.533 247.163 246.079 247.637 245.749 248.256C245.429 248.875 245.269 249.595 245.269 250.416C245.269 251.237 245.429 251.963 245.749 252.592C246.079 253.211 246.533 253.691 247.109 254.032C247.685 254.363 248.341 254.528 249.077 254.528ZM262.328 256L259.768 251.552H258.376V256H256.552V244.88H260.392C261.245 244.88 261.965 245.029 262.552 245.328C263.149 245.627 263.592 246.027 263.88 246.528C264.178 247.029 264.328 247.589 264.328 248.208C264.328 248.933 264.114 249.595 263.688 250.192C263.272 250.779 262.626 251.179 261.752 251.392L264.504 256H262.328ZM258.376 250.096H260.392C261.074 250.096 261.586 249.925 261.928 249.584C262.28 249.243 262.456 248.784 262.456 248.208C262.456 247.632 262.285 247.184 261.944 246.864C261.602 246.533 261.085 246.368 260.392 246.368H258.376V250.096ZM281.141 244.88L277.845 256H275.781L273.445 247.584L270.965 256L268.917 256.016L265.765 244.88H267.701L270.005 253.936L272.501 244.88H274.549L276.869 253.888L279.189 244.88H281.141ZM289.349 253.728H284.693L283.893 256H281.989L285.973 244.864H288.085L292.069 256H290.149L289.349 253.728ZM288.837 252.24L287.029 247.072L285.205 252.24H288.837ZM299.578 256L297.018 251.552H295.626V256H293.802V244.88H297.642C298.495 244.88 299.215 245.029 299.802 245.328C300.399 245.627 300.842 246.027 301.13 246.528C301.428 247.029 301.578 247.589 301.578 248.208C301.578 248.933 301.364 249.595 300.938 250.192C300.522 250.779 299.876 251.179 299.002 251.392L301.754 256H299.578ZM295.626 250.096H297.642C298.324 250.096 298.836 249.925 299.178 249.584C299.53 249.243 299.706 248.784 299.706 248.208C299.706 247.632 299.535 247.184 299.194 246.864C298.852 246.533 298.335 246.368 297.642 246.368H295.626V250.096ZM307.543 244.88C308.727 244.88 309.762 245.109 310.647 245.568C311.543 246.016 312.231 246.667 312.711 247.52C313.202 248.363 313.447 249.349 313.447 250.48C313.447 251.611 313.202 252.592 312.711 253.424C312.231 254.256 311.543 254.896 310.647 255.344C309.762 255.781 308.727 256 307.543 256H303.911V244.88H307.543ZM307.543 254.512C308.844 254.512 309.842 254.16 310.535 253.456C311.228 252.752 311.575 251.76 311.575 250.48C311.575 249.189 311.228 248.181 310.535 247.456C309.842 246.731 308.844 246.368 307.543 246.368H305.735V254.512H307.543ZM324.999 256.64V258.336H316.071V256.64H324.999ZM333.796 256L331.236 251.552H329.844V256H328.02V244.88H331.86C332.714 244.88 333.434 245.029 334.02 245.328C334.618 245.627 335.06 246.027 335.348 246.528C335.647 247.029 335.796 247.589 335.796 248.208C335.796 248.933 335.583 249.595 335.156 250.192C334.74 250.779 334.095 251.179 333.22 251.392L335.972 256H333.796ZM329.844 250.096H331.86C332.543 250.096 333.055 249.925 333.396 249.584C333.748 249.243 333.924 248.784 333.924 248.208C333.924 247.632 333.754 247.184 333.412 246.864C333.071 246.533 332.554 246.368 331.86 246.368H329.844V250.096ZM344.834 253.728H340.178L339.378 256H337.474L341.458 244.864H343.57L347.554 256H345.634L344.834 253.728ZM344.322 252.24L342.514 247.072L340.69 252.24H344.322ZM356.47 244.88V246.368H353.51V256H351.686V246.368H348.71V244.88H356.47ZM360.141 246.352V249.616H363.981V251.104H360.141V254.512H364.461V256H358.317V244.864H364.461V246.352H360.141ZM370.74 258.976C369.694 257.973 368.889 256.699 368.324 255.152C367.769 253.605 367.492 251.947 367.492 250.176C367.492 248.363 367.79 246.651 368.388 245.04C368.996 243.429 369.886 242.101 371.06 241.056H372.948V241.232C371.721 242.363 370.798 243.717 370.18 245.296C369.561 246.875 369.252 248.501 369.252 250.176C369.252 251.787 369.54 253.344 370.116 254.848C370.692 256.352 371.529 257.669 372.628 258.8V258.976H370.74ZM393.333 253.808L391.397 258.224H390.213L391.349 253.808H393.333ZM421.473 253.808L419.537 258.224H418.353L419.489 253.808H421.473ZM447.432 258.976V258.8C448.53 257.669 449.368 256.352 449.944 254.848C450.52 253.344 450.808 251.787 450.808 250.176C450.808 248.501 450.498 246.875 449.88 245.296C449.261 243.717 448.338 242.363 447.112 241.232V241.056H449C450.173 242.101 451.058 243.429 451.656 245.04C452.264 246.651 452.568 248.363 452.568 250.176C452.568 251.947 452.285 253.605 451.72 255.152C451.165 256.699 450.365 257.973 449.32 258.976H447.432Z" fill="#0D0D0D"/>
<path d="M381.287 253.728H376.631L375.831 256H373.927L377.911 244.864H380.023L384.007 256H382.087L381.287 253.728ZM380.775 252.24L378.967 247.072L377.143 252.24H380.775ZM385.259 246V244.336H388.587V256H386.747V246H385.259Z" fill="#3765C0"/>
<path d="M405.787 253.728H401.131L400.331 256H398.427L402.411 244.864H404.523L408.507 256H406.587L405.787 253.728ZM405.275 252.24L403.467 247.072L401.643 252.24H405.275ZM411.007 253.52C412.031 252.635 412.836 251.909 413.423 251.344C414.02 250.768 414.516 250.171 414.911 249.552C415.306 248.933 415.503 248.315 415.503 247.696C415.503 247.056 415.348 246.555 415.039 246.192C414.74 245.829 414.266 245.648 413.615 245.648C412.986 245.648 412.495 245.851 412.143 246.256C411.802 246.651 411.62 247.184 411.599 247.856H409.839C409.871 246.64 410.234 245.712 410.927 245.072C411.631 244.421 412.522 244.096 413.599 244.096C414.762 244.096 415.668 244.416 416.319 245.056C416.98 245.696 417.311 246.549 417.311 247.616C417.311 248.384 417.114 249.125 416.719 249.84C416.335 250.544 415.871 251.179 415.327 251.744C414.794 252.299 414.111 252.944 413.279 253.68L412.559 254.32H417.631V255.84H409.855V254.512L411.007 253.52Z" fill="#E84763"/>
<path d="M433.927 253.728H429.271L428.471 256H426.567L430.551 244.864H432.663L436.647 256H434.727L433.927 253.728ZM433.415 252.24L431.607 247.072L429.783 252.24H433.415ZM438.108 247.216C438.172 246.224 438.55 245.451 439.244 244.896C439.948 244.341 440.844 244.064 441.932 244.064C442.678 244.064 443.324 244.197 443.868 244.464C444.412 244.731 444.822 245.093 445.1 245.552C445.377 246.011 445.516 246.528 445.516 247.104C445.516 247.765 445.34 248.331 444.988 248.8C444.636 249.269 444.214 249.584 443.724 249.744V249.808C444.353 250 444.844 250.352 445.196 250.864C445.548 251.365 445.724 252.011 445.724 252.8C445.724 253.429 445.58 253.989 445.292 254.48C445.004 254.971 444.577 255.36 444.012 255.648C443.446 255.925 442.769 256.064 441.98 256.064C440.828 256.064 439.878 255.771 439.132 255.184C438.396 254.587 438.001 253.733 437.948 252.624H439.708C439.75 253.189 439.969 253.653 440.364 254.016C440.758 254.368 441.292 254.544 441.964 254.544C442.614 254.544 443.116 254.368 443.468 254.016C443.82 253.653 443.996 253.189 443.996 252.624C443.996 251.877 443.756 251.349 443.276 251.04C442.806 250.72 442.081 250.56 441.1 250.56H440.684V249.056H441.116C441.98 249.045 442.636 248.901 443.084 248.624C443.542 248.347 443.772 247.909 443.772 247.312C443.772 246.8 443.606 246.395 443.276 246.096C442.945 245.787 442.476 245.632 441.868 245.632C441.27 245.632 440.806 245.787 440.476 246.096C440.145 246.395 439.948 246.768 439.884 247.216H438.108Z" fill="#8151B2"/>
<mask id="path-5-inside-1_85_347" fill="white">
<path d="M178 83H338V123H178V83Z"/>
</mask>
<path d="M178 83H338V123H178V83Z" fill="white"/>
<path d="M178 83V81H176V83H178ZM338 83H340V81H338V83ZM178 83V85H338V83V81H178V83ZM338 83H336V123H338H340V83H338ZM178 123H180V83H178H176V123H178Z" fill="#3765C0" mask="url(#path-5-inside-1_85_347)"/>
<path d="M217.412 101.216C217.476 100.224 217.855 99.4507 218.548 98.896C219.252 98.3413 220.148 98.064 221.236 98.064C221.983 98.064 222.628 98.1973 223.172 98.464C223.716 98.7307 224.127 99.0933 224.404 99.552C224.682 100.011 224.82 100.528 224.82 101.104C224.82 101.765 224.644 102.331 224.292 102.8C223.94 103.269 223.519 103.584 223.028 103.744V103.808C223.658 104 224.148 104.352 224.5 104.864C224.852 105.365 225.028 106.011 225.028 106.8C225.028 107.429 224.884 107.989 224.596 108.48C224.308 108.971 223.882 109.36 223.316 109.648C222.751 109.925 222.074 110.064 221.284 110.064C220.132 110.064 219.183 109.771 218.436 109.184C217.7 108.587 217.306 107.733 217.252 106.624H219.012C219.055 107.189 219.274 107.653 219.668 108.016C220.063 108.368 220.596 108.544 221.268 108.544C221.919 108.544 222.42 108.368 222.772 108.016C223.124 107.653 223.3 107.189 223.3 106.624C223.3 105.877 223.06 105.349 222.58 105.04C222.111 104.72 221.386 104.56 220.404 104.56H219.988V103.056H220.42C221.284 103.045 221.94 102.901 222.388 102.624C222.847 102.347 223.076 101.909 223.076 101.312C223.076 100.8 222.911 100.395 222.58 100.096C222.25 99.7867 221.78 99.632 221.172 99.632C220.575 99.632 220.111 99.7867 219.78 100.096C219.45 100.395 219.252 100.768 219.188 101.216H217.412ZM226.704 100V98.336H230.032V110H228.192V100H226.704ZM238.698 94.896L234.346 112.8H232.554L236.89 94.896H238.698ZM240.517 100V98.336H243.845V110H242.005V100H240.517ZM247.359 107.52C248.383 106.635 249.188 105.909 249.775 105.344C250.372 104.768 250.868 104.171 251.263 103.552C251.657 102.933 251.855 102.315 251.855 101.696C251.855 101.056 251.7 100.555 251.391 100.192C251.092 99.8293 250.617 99.648 249.967 99.648C249.337 99.648 248.847 99.8507 248.495 100.256C248.153 100.651 247.972 101.184 247.951 101.856H246.191C246.223 100.64 246.585 99.712 247.279 99.072C247.983 98.4213 248.873 98.096 249.951 98.096C251.113 98.096 252.02 98.416 252.671 99.056C253.332 99.696 253.663 100.549 253.663 101.616C253.663 102.384 253.465 103.125 253.071 103.84C252.687 104.544 252.223 105.179 251.679 105.744C251.145 106.299 250.463 106.944 249.631 107.68L248.911 108.32H253.983V109.84H246.207V108.512L247.359 107.52ZM261.745 94.896L257.393 112.8H255.601L259.937 94.896H261.745ZM264.812 107.52C265.836 106.635 266.641 105.909 267.228 105.344C267.825 104.768 268.321 104.171 268.716 103.552C269.11 102.933 269.308 102.315 269.308 101.696C269.308 101.056 269.153 100.555 268.844 100.192C268.545 99.8293 268.07 99.648 267.42 99.648C266.79 99.648 266.3 99.8507 265.948 100.256C265.606 100.651 265.425 101.184 265.404 101.856H263.644C263.676 100.64 264.038 99.712 264.732 99.072C265.436 98.4213 266.326 98.096 267.404 98.096C268.566 98.096 269.473 98.416 270.124 99.056C270.785 99.696 271.116 100.549 271.116 101.616C271.116 102.384 270.918 103.125 270.524 103.84C270.14 104.544 269.676 105.179 269.132 105.744C268.598 106.299 267.916 106.944 267.084 107.68L266.364 108.32H271.436V109.84H263.66V108.512L264.812 107.52ZM273.038 104.016C273.038 102.171 273.347 100.731 273.966 99.696C274.595 98.6507 275.673 98.128 277.198 98.128C278.723 98.128 279.795 98.6507 280.414 99.696C281.043 100.731 281.358 102.171 281.358 104.016C281.358 105.883 281.043 107.344 280.414 108.4C279.795 109.445 278.723 109.968 277.198 109.968C275.673 109.968 274.595 109.445 273.966 108.4C273.347 107.344 273.038 105.883 273.038 104.016ZM279.566 104.016C279.566 103.152 279.507 102.421 279.39 101.824C279.283 101.227 279.059 100.741 278.718 100.368C278.377 99.984 277.87 99.792 277.198 99.792C276.526 99.792 276.019 99.984 275.678 100.368C275.337 100.741 275.107 101.227 274.99 101.824C274.883 102.421 274.83 103.152 274.83 104.016C274.83 104.912 274.883 105.664 274.99 106.272C275.097 106.88 275.321 107.371 275.662 107.744C276.014 108.117 276.526 108.304 277.198 108.304C277.87 108.304 278.377 108.117 278.718 107.744C279.07 107.371 279.299 106.88 279.406 106.272C279.513 105.664 279.566 104.912 279.566 104.016ZM284.296 107.52C285.32 106.635 286.125 105.909 286.712 105.344C287.309 104.768 287.805 104.171 288.2 103.552C288.595 102.933 288.792 102.315 288.792 101.696C288.792 101.056 288.637 100.555 288.328 100.192C288.029 99.8293 287.555 99.648 286.904 99.648C286.275 99.648 285.784 99.8507 285.432 100.256C285.091 100.651 284.909 101.184 284.888 101.856H283.128C283.16 100.64 283.523 99.712 284.216 99.072C284.92 98.4213 285.811 98.096 286.888 98.096C288.051 98.096 288.957 98.416 289.608 99.056C290.269 99.696 290.6 100.549 290.6 101.616C290.6 102.384 290.403 103.125 290.008 103.84C289.624 104.544 289.16 105.179 288.616 105.744C288.083 106.299 287.4 106.944 286.568 107.68L285.848 108.32H290.92V109.84H283.144V108.512L284.296 107.52ZM299.915 99.744L295.467 110H293.627L298.123 99.936H292.203V98.384H299.915V99.744Z" fill="#0D0D0D"/>
<rect x="175" y="80" width="8" height="8" fill="#3765C0"/>
<rect x="333" y="80" width="8" height="8" fill="#3765C0"/>
<mask id="path-10-inside-2_85_347" fill="white">
<path d="M178 123H338V163H178V123Z"/>
</mask>
<path d="M178 123H338V163H178V123Z" fill="white"/>
<path d="M178 123V121H176V123H178ZM338 123H340V121H338V123ZM178 123V125H338V123V121H178V123ZM338 123H336V163H338H340V123H338ZM178 163H180V123H178H176V163H178Z" fill="#E84763" mask="url(#path-10-inside-2_85_347)"/>
<path d="M214.326 141.216C214.39 140.224 214.769 139.451 215.462 138.896C216.166 138.341 217.062 138.064 218.15 138.064C218.897 138.064 219.542 138.197 220.086 138.464C220.63 138.731 221.041 139.093 221.318 139.552C221.596 140.011 221.734 140.528 221.734 141.104C221.734 141.765 221.558 142.331 221.206 142.8C220.854 143.269 220.433 143.584 219.942 143.744V143.808C220.572 144 221.062 144.352 221.414 144.864C221.766 145.365 221.942 146.011 221.942 146.8C221.942 147.429 221.798 147.989 221.51 148.48C221.222 148.971 220.796 149.36 220.23 149.648C219.665 149.925 218.988 150.064 218.198 150.064C217.046 150.064 216.097 149.771 215.35 149.184C214.614 148.587 214.22 147.733 214.166 146.624H215.926C215.969 147.189 216.188 147.653 216.582 148.016C216.977 148.368 217.51 148.544 218.182 148.544C218.833 148.544 219.334 148.368 219.686 148.016C220.038 147.653 220.214 147.189 220.214 146.624C220.214 145.877 219.974 145.349 219.494 145.04C219.025 144.72 218.3 144.56 217.318 144.56H216.902V143.056H217.334C218.198 143.045 218.854 142.901 219.302 142.624C219.761 142.347 219.99 141.909 219.99 141.312C219.99 140.8 219.825 140.395 219.494 140.096C219.164 139.787 218.694 139.632 218.086 139.632C217.489 139.632 217.025 139.787 216.694 140.096C216.364 140.395 216.166 140.768 216.102 141.216H214.326ZM223.618 140V138.336H226.946V150H225.106V140H223.618ZM235.612 134.896L231.26 152.8H229.468L233.804 134.896H235.612ZM237.671 144.016C237.671 142.171 237.98 140.731 238.599 139.696C239.228 138.651 240.306 138.128 241.831 138.128C243.356 138.128 244.428 138.651 245.047 139.696C245.676 140.731 245.991 142.171 245.991 144.016C245.991 145.883 245.676 147.344 245.047 148.4C244.428 149.445 243.356 149.968 241.831 149.968C240.306 149.968 239.228 149.445 238.599 148.4C237.98 147.344 237.671 145.883 237.671 144.016ZM244.199 144.016C244.199 143.152 244.14 142.421 244.023 141.824C243.916 141.227 243.692 140.741 243.351 140.368C243.01 139.984 242.503 139.792 241.831 139.792C241.159 139.792 240.652 139.984 240.311 140.368C239.97 140.741 239.74 141.227 239.623 141.824C239.516 142.421 239.463 143.152 239.463 144.016C239.463 144.912 239.516 145.664 239.623 146.272C239.73 146.88 239.954 147.371 240.295 147.744C240.647 148.117 241.159 148.304 241.831 148.304C242.503 148.304 243.01 148.117 243.351 147.744C243.703 147.371 243.932 146.88 244.039 146.272C244.146 145.664 244.199 144.912 244.199 144.016ZM247.889 141.216C247.953 140.224 248.332 139.451 249.025 138.896C249.729 138.341 250.625 138.064 251.713 138.064C252.46 138.064 253.105 138.197 253.649 138.464C254.193 138.731 254.604 139.093 254.881 139.552C255.158 140.011 255.297 140.528 255.297 141.104C255.297 141.765 255.121 142.331 254.769 142.8C254.417 143.269 253.996 143.584 253.505 143.744V143.808C254.134 144 254.625 144.352 254.977 144.864C255.329 145.365 255.505 146.011 255.505 146.8C255.505 147.429 255.361 147.989 255.073 148.48C254.785 148.971 254.358 149.36 253.793 149.648C253.228 149.925 252.55 150.064 251.761 150.064C250.609 150.064 249.66 149.771 248.913 149.184C248.177 148.587 247.782 147.733 247.729 146.624H249.489C249.532 147.189 249.75 147.653 250.145 148.016C250.54 148.368 251.073 148.544 251.745 148.544C252.396 148.544 252.897 148.368 253.249 148.016C253.601 147.653 253.777 147.189 253.777 146.624C253.777 145.877 253.537 145.349 253.057 145.04C252.588 144.72 251.862 144.56 250.881 144.56H250.465V143.056H250.897C251.761 143.045 252.417 142.901 252.865 142.624C253.324 142.347 253.553 141.909 253.553 141.312C253.553 140.8 253.388 140.395 253.057 140.096C252.726 139.787 252.257 139.632 251.649 139.632C251.052 139.632 250.588 139.787 250.257 140.096C249.926 140.395 249.729 140.768 249.665 141.216H247.889ZM263.581 134.896L259.229 152.8H257.437L261.773 134.896H263.581ZM266.648 147.52C267.672 146.635 268.477 145.909 269.064 145.344C269.661 144.768 270.157 144.171 270.552 143.552C270.946 142.933 271.144 142.315 271.144 141.696C271.144 141.056 270.989 140.555 270.68 140.192C270.381 139.829 269.906 139.648 269.256 139.648C268.626 139.648 268.136 139.851 267.784 140.256C267.442 140.651 267.261 141.184 267.24 141.856H265.48C265.512 140.64 265.874 139.712 266.568 139.072C267.272 138.421 268.162 138.096 269.24 138.096C270.402 138.096 271.309 138.416 271.96 139.056C272.621 139.696 272.952 140.549 272.952 141.616C272.952 142.384 272.754 143.125 272.36 143.84C271.976 144.544 271.512 145.179 270.968 145.744C270.434 146.299 269.752 146.944 268.92 147.68L268.2 148.32H273.272V149.84H265.496V148.512L266.648 147.52ZM274.874 144.016C274.874 142.171 275.183 140.731 275.802 139.696C276.431 138.651 277.509 138.128 279.034 138.128C280.559 138.128 281.631 138.651 282.25 139.696C282.879 140.731 283.194 142.171 283.194 144.016C283.194 145.883 282.879 147.344 282.25 148.4C281.631 149.445 280.559 149.968 279.034 149.968C277.509 149.968 276.431 149.445 275.802 148.4C275.183 147.344 274.874 145.883 274.874 144.016ZM281.402 144.016C281.402 143.152 281.343 142.421 281.226 141.824C281.119 141.227 280.895 140.741 280.554 140.368C280.213 139.984 279.706 139.792 279.034 139.792C278.362 139.792 277.855 139.984 277.514 140.368C277.173 140.741 276.943 141.227 276.826 141.824C276.719 142.421 276.666 143.152 276.666 144.016C276.666 144.912 276.719 145.664 276.826 146.272C276.933 146.88 277.157 147.371 277.498 147.744C277.85 148.117 278.362 148.304 279.034 148.304C279.706 148.304 280.213 148.117 280.554 147.744C280.906 147.371 281.135 146.88 281.242 146.272C281.349 145.664 281.402 144.912 281.402 144.016ZM286.132 147.52C287.156 146.635 287.961 145.909 288.548 145.344C289.145 144.768 289.641 144.171 290.036 143.552C290.431 142.933 290.628 142.315 290.628 141.696C290.628 141.056 290.473 140.555 290.164 140.192C289.865 139.829 289.391 139.648 288.74 139.648C288.111 139.648 287.62 139.851 287.268 140.256C286.927 140.651 286.745 141.184 286.724 141.856H284.964C284.996 140.64 285.359 139.712 286.052 139.072C286.756 138.421 287.647 138.096 288.724 138.096C289.887 138.096 290.793 138.416 291.444 139.056C292.105 139.696 292.436 140.549 292.436 141.616C292.436 142.384 292.239 143.125 291.844 143.84C291.46 144.544 290.996 145.179 290.452 145.744C289.919 146.299 289.236 146.944 288.404 147.68L287.684 148.32H292.756V149.84H284.98V148.512L286.132 147.52ZM296.326 143.904C295.217 143.349 294.662 142.475 294.662 141.28C294.662 140.704 294.806 140.176 295.094 139.696C295.382 139.216 295.814 138.837 296.39 138.56C296.966 138.272 297.67 138.128 298.502 138.128C299.324 138.128 300.022 138.272 300.598 138.56C301.185 138.837 301.622 139.216 301.91 139.696C302.198 140.176 302.342 140.704 302.342 141.28C302.342 141.877 302.188 142.405 301.878 142.864C301.58 143.312 301.18 143.659 300.678 143.904C301.286 144.128 301.766 144.496 302.118 145.008C302.47 145.509 302.646 146.101 302.646 146.784C302.646 147.477 302.47 148.091 302.118 148.624C301.766 149.157 301.276 149.568 300.646 149.856C300.017 150.144 299.302 150.288 298.502 150.288C297.702 150.288 296.988 150.144 296.358 149.856C295.74 149.568 295.254 149.157 294.902 148.624C294.55 148.091 294.374 147.477 294.374 146.784C294.374 146.091 294.55 145.493 294.902 144.992C295.254 144.491 295.729 144.128 296.326 143.904ZM300.598 141.504C300.598 140.907 300.412 140.448 300.038 140.128C299.665 139.808 299.153 139.648 298.502 139.648C297.862 139.648 297.356 139.808 296.982 140.128C296.609 140.448 296.422 140.912 296.422 141.52C296.422 142.053 296.614 142.491 296.998 142.832C297.393 143.163 297.894 143.328 298.502 143.328C299.11 143.328 299.612 143.157 300.006 142.816C300.401 142.475 300.598 142.037 300.598 141.504ZM298.502 144.704C297.798 144.704 297.222 144.88 296.774 145.232C296.337 145.573 296.118 146.069 296.118 146.72C296.118 147.328 296.332 147.824 296.758 148.208C297.185 148.581 297.766 148.768 298.502 148.768C299.228 148.768 299.798 148.576 300.214 148.192C300.641 147.808 300.854 147.317 300.854 146.72C300.854 146.08 300.636 145.584 300.198 145.232C299.772 144.88 299.206 144.704 298.502 144.704Z" fill="#0D0D0D"/>
<rect x="175" y="120" width="8" height="8" fill="#E84763"/>
<rect x="333" y="120" width="8" height="8" fill="#E84763"/>
<mask id="path-15-inside-3_85_347" fill="white">
<path d="M178 163H338V203H178V163Z"/>
</mask>
<path d="M178 163H338V203H178V163Z" fill="white"/>
<path d="M178 163V161H176V163H178ZM338 163H340V161H338V163ZM338 203V205H340V203H338ZM178 203H176V205H178V203ZM178 163V165H338V163V161H178V163ZM338 163H336V203H338H340V163H338ZM338 203V201H178V203V205H338V203ZM178 203H180V163H178H176V203H178Z" fill="#8151B2" mask="url(#path-15-inside-3_85_347)"/>
<path d="M243.091 189.112C242.344 189.112 241.672 188.984 241.075 188.728C240.477 188.461 240.008 188.088 239.667 187.608C239.325 187.128 239.155 186.568 239.155 185.928H241.107C241.149 186.408 241.336 186.803 241.667 187.112C242.008 187.421 242.483 187.576 243.091 187.576C243.72 187.576 244.211 187.427 244.563 187.128C244.915 186.819 245.091 186.424 245.091 185.944C245.091 185.571 244.979 185.267 244.755 185.032C244.541 184.797 244.269 184.616 243.939 184.488C243.619 184.36 243.171 184.221 242.595 184.072C241.869 183.88 241.277 183.688 240.819 183.496C240.371 183.293 239.987 182.984 239.667 182.568C239.347 182.152 239.187 181.597 239.187 180.904C239.187 180.264 239.347 179.704 239.667 179.224C239.987 178.744 240.435 178.376 241.011 178.12C241.587 177.864 242.253 177.736 243.011 177.736C244.088 177.736 244.968 178.008 245.651 178.552C246.344 179.085 246.728 179.821 246.803 180.76H244.787C244.755 180.355 244.563 180.008 244.211 179.72C243.859 179.432 243.395 179.288 242.819 179.288C242.296 179.288 241.869 179.421 241.539 179.688C241.208 179.955 241.043 180.339 241.043 180.84C241.043 181.181 241.144 181.464 241.347 181.688C241.56 181.901 241.827 182.072 242.147 182.2C242.467 182.328 242.904 182.467 243.459 182.616C244.195 182.819 244.792 183.021 245.251 183.224C245.72 183.427 246.115 183.741 246.435 184.168C246.765 184.584 246.931 185.144 246.931 185.848C246.931 186.413 246.776 186.947 246.467 187.448C246.168 187.949 245.725 188.355 245.139 188.664C244.563 188.963 243.88 189.112 243.091 189.112ZM254.155 189.112C253.12 189.112 252.165 188.872 251.291 188.392C250.427 187.901 249.739 187.224 249.227 186.36C248.725 185.485 248.475 184.504 248.475 183.416C248.475 182.328 248.725 181.352 249.227 180.488C249.739 179.624 250.427 178.952 251.291 178.472C252.165 177.981 253.12 177.736 254.155 177.736C255.2 177.736 256.155 177.981 257.019 178.472C257.893 178.952 258.581 179.624 259.083 180.488C259.584 181.352 259.835 182.328 259.835 183.416C259.835 184.504 259.584 185.485 259.083 186.36C258.581 187.224 257.893 187.901 257.019 188.392C256.155 188.872 255.2 189.112 254.155 189.112ZM254.155 187.528C254.891 187.528 255.547 187.363 256.123 187.032C256.699 186.691 257.147 186.211 257.467 185.592C257.797 184.963 257.963 184.237 257.963 183.416C257.963 182.595 257.797 181.875 257.467 181.256C257.147 180.637 256.699 180.163 256.123 179.832C255.547 179.501 254.891 179.336 254.155 179.336C253.419 179.336 252.763 179.501 252.187 179.832C251.611 180.163 251.157 180.637 250.827 181.256C250.507 181.875 250.347 182.595 250.347 183.416C250.347 184.237 250.507 184.963 250.827 185.592C251.157 186.211 251.611 186.691 252.187 187.032C252.763 187.363 253.419 187.528 254.155 187.528ZM268.174 177.88V179.368H263.454V182.648H267.134V184.136H263.454V189H261.63V177.88H268.174ZM275.64 189L273.08 184.552H271.688V189H269.864V177.88H273.704C274.557 177.88 275.277 178.029 275.864 178.328C276.461 178.627 276.904 179.027 277.192 179.528C277.491 180.029 277.64 180.589 277.64 181.208C277.64 181.933 277.427 182.595 277 183.192C276.584 183.779 275.939 184.179 275.064 184.392L277.816 189H275.64ZM271.688 183.096H273.704C274.387 183.096 274.899 182.925 275.24 182.584C275.592 182.243 275.768 181.784 275.768 181.208C275.768 180.632 275.597 180.184 275.256 179.864C274.915 179.533 274.397 179.368 273.704 179.368H271.688V183.096Z" fill="#0D0D0D"/>
<rect x="175" y="160" width="8" height="8" fill="#8151B2"/>
<rect x="175" y="198" width="8" height="8" fill="#8151B2"/>
<rect x="333" y="160" width="8" height="8" fill="#8151B2"/>
<rect x="333" y="198" width="8" height="8" fill="#8151B2"/>
</svg>
