<svg xmlns="http://www.w3.org/2000/svg" width="25" height="40" viewBox="0 0 25 40" fill="none">
<mask id="mask0_3156_1240" style="mask-type:luminance" maskUnits="userSpaceOnUse" x="0" y="8" width="8" height="8">
<path d="M0 11.9647C0 14.1019 1.73262 15.8345 3.8701 15.8345C6.00758 15.8345 7.73993 14.1019 7.73993 11.9647C7.73993 9.82722 6.00758 8.0946 3.8701 8.0946C1.73262 8.0946 0 9.82722 0 11.9647Z" fill="white"/>
</mask>
<g mask="url(#mask0_3156_1240)">
<path d="M-3.81354 12.6233L3.21152 4.28116L11.5537 11.3062L4.5286 19.6484L-3.81354 12.6233Z" fill="url(#paint0_linear_3156_1240)"/>
</g>
<mask id="mask1_3156_1240" style="mask-type:luminance" maskUnits="userSpaceOnUse" x="0" y="24" width="8" height="8">
<path d="M0 28.0945C0 30.232 1.73262 31.9644 3.8701 31.9644C6.00758 31.9644 7.73993 30.232 7.73993 28.0945C7.73993 25.9573 6.00758 24.2247 3.8701 24.2247C1.73262 24.2247 0 25.9573 0 28.0945Z" fill="white"/>
</mask>
<g mask="url(#mask1_3156_1240)">
<path d="M-3.81335 28.7531L3.21143 20.411L11.5533 27.4358L4.52851 35.7779L-3.81335 28.7531Z" fill="url(#paint1_linear_3156_1240)"/>
</g>
<mask id="mask2_3156_1240" style="mask-type:luminance" maskUnits="userSpaceOnUse" x="8" y="0" width="17" height="40">
<path d="M8.15381 3.87037C8.15381 6.0073 9.88616 7.74021 12.0236 7.74021C12.5984 7.74021 13.142 7.61165 13.6324 7.38661L16.6812 10.4358C16.4792 10.9048 16.3663 11.4214 16.3663 11.9647C16.3663 12.5107 16.4806 13.0299 16.6845 13.5008L13.6792 16.5061C13.1768 16.2676 12.6168 16.13 12.0236 16.13C9.88616 16.13 8.15381 17.8627 8.15381 20.0001C8.15381 22.1373 9.88616 23.87 12.0236 23.87C12.6102 23.87 13.1645 23.7357 13.6628 23.5021L16.696 26.5351C16.4853 27.0126 16.3663 27.5394 16.3663 28.0945C16.3663 28.6287 16.4746 29.1372 16.67 29.6002L13.6485 32.6213C13.1541 32.3916 12.6047 32.2601 12.0236 32.2601C9.88616 32.2601 8.15381 33.9927 8.15381 36.1302C8.15381 38.2674 9.88616 40 12.0236 40C14.1611 40 15.8935 38.2674 15.8935 36.1302C15.8935 35.5244 15.7507 34.9543 15.5029 34.4436L18.4306 31.5159C18.9698 31.8015 19.5835 31.9643 20.2361 31.9643C22.3736 31.9643 24.1062 30.232 24.1062 28.0945C24.1062 25.9573 22.3736 24.2247 20.2361 24.2247C19.6051 24.2247 19.0111 24.3787 18.4843 24.6468L15.5097 21.6722C15.7531 21.1654 15.8935 20.5996 15.8935 20.0001C15.8935 19.407 15.7561 18.847 15.5177 18.3443L18.4607 15.4012C18.9931 15.6764 19.5955 15.8346 20.2361 15.8346C22.3736 15.8346 24.1062 14.1019 24.1062 11.9647C24.1062 9.82724 22.3736 8.09462 20.2361 8.09462C19.5931 8.09462 18.9876 8.25415 18.4539 8.53182L15.4949 5.57285C15.7476 5.05835 15.8935 4.48218 15.8935 3.87037C15.8935 1.7329 14.1611 0 12.0236 0C9.88616 0 8.15381 1.7329 8.15381 3.87037Z" fill="white"/>
</mask>
<g mask="url(#mask2_3156_1240)">
<path d="M-11.5544 23.4035L14.7726 -7.85992L43.8144 16.5966L17.4874 47.8601L-11.5544 23.4035Z" fill="url(#paint2_linear_3156_1240)"/>
</g>
<defs>
<linearGradient id="paint0_linear_3156_1240" x1="-5.20674" y1="22.7427" x2="4.80759" y2="10.8507" gradientUnits="userSpaceOnUse">
<stop stop-color="#2385FA"/>
<stop offset="0.0026" stop-color="#2385FA"/>
<stop offset="0.1815" stop-color="#2282F6"/>
<stop offset="0.3645" stop-color="#1E7BEA"/>
<stop offset="0.5495" stop-color="#196FD5"/>
<stop offset="0.7359" stop-color="#105DB8"/>
<stop offset="0.9216" stop-color="#064794"/>
<stop offset="1" stop-color="#013C82"/>
</linearGradient>
<linearGradient id="paint1_linear_3156_1240" x1="2.74011" y1="29.4346" x2="12.7544" y2="17.5426" gradientUnits="userSpaceOnUse">
<stop stop-color="#2385FA"/>
<stop offset="0.0026" stop-color="#2385FA"/>
<stop offset="0.1815" stop-color="#2282F6"/>
<stop offset="0.3645" stop-color="#1E7BEA"/>
<stop offset="0.5495" stop-color="#196FD5"/>
<stop offset="0.7359" stop-color="#105DB8"/>
<stop offset="0.9216" stop-color="#064794"/>
<stop offset="1" stop-color="#013C82"/>
</linearGradient>
<linearGradient id="paint2_linear_3156_1240" x1="5.9245" y1="32.1161" x2="15.9388" y2="20.2241" gradientUnits="userSpaceOnUse">
<stop stop-color="#2385FA"/>
<stop offset="0.0026" stop-color="#2385FA"/>
<stop offset="0.1815" stop-color="#2282F6"/>
<stop offset="0.3645" stop-color="#1E7BEA"/>
<stop offset="0.5495" stop-color="#196FD5"/>
<stop offset="0.7359" stop-color="#105DB8"/>
<stop offset="0.9216" stop-color="#064794"/>
<stop offset="1" stop-color="#013C82"/>
</linearGradient>
</defs>
</svg>