<svg xmlns="http://www.w3.org/2000/svg" width="230" height="40" viewBox="0 0 230 40" fill="none">
<path d="M45.329 19.6557C47.2433 20.7593 48.2008 22.4236 48.2008 24.6502C48.2008 26.5023 47.5451 28.0214 46.2341 29.2072C44.923 30.3933 43.3102 30.9864 41.3958 30.9864H32.1253V9.13608H40.7405C42.6131 9.13608 44.1895 9.71389 45.4693 10.8684C46.7491 12.0235 47.3892 13.496 47.3892 15.2856C47.3892 17.0961 46.7023 18.5527 45.329 19.6557ZM40.7405 13.163H36.4329V17.97H40.7405C41.4063 17.97 41.9627 17.7411 42.4103 17.2833C42.8576 16.8258 43.0813 16.2532 43.0813 15.5666C43.0813 14.88 42.8631 14.3076 42.4259 13.8496C41.9893 13.3921 41.4271 13.163 40.7405 13.163ZM41.3958 26.9598C42.1241 26.9598 42.7275 26.7153 43.2063 26.2263C43.6849 25.7376 43.9242 25.1184 43.9242 24.3692C43.9242 23.6409 43.6849 23.0321 43.2063 22.5431C42.7275 22.0544 42.1241 21.8099 41.3958 21.8099H36.4329V26.9598H41.3958Z" fill="black"/>
<path d="M53.6006 8.19965H49.574V30.9863H53.6006V8.19965Z" fill="black"/>
<path d="M66.0892 15.3791H70.1158V30.9864H66.0892V29.2387C65.1109 30.6956 63.5608 31.4236 61.4384 31.4236C59.7318 31.4236 58.3218 30.8515 57.2087 29.7069C56.0952 28.5628 55.5388 26.9809 55.5388 24.9624V15.3791H59.5654V24.463C59.5654 25.504 59.8464 26.2995 60.408 26.851C60.9699 27.4022 61.7194 27.6779 62.6557 27.6779C63.6962 27.6779 64.5284 27.3553 65.1525 26.7103C65.7772 26.0651 66.0892 25.0978 66.0892 23.807V15.3791Z" fill="black"/>
<path d="M75.9529 24.8377C76.4937 26.7934 77.9607 27.7717 80.3539 27.7717C81.8936 27.7717 83.0588 27.2517 83.8501 26.2107L87.0964 28.0836C85.5559 30.3105 83.2882 31.4236 80.2914 31.4236C77.711 31.4236 75.6407 30.643 74.0799 29.0825C72.5192 27.5217 71.7388 25.5553 71.7388 23.1832C71.7388 20.8316 72.5085 18.8704 74.0487 17.2989C75.5886 15.7278 77.5652 14.9419 79.9795 14.9419C82.2685 14.9419 84.1569 15.7332 85.645 17.3145C87.1323 18.8961 87.8768 20.8524 87.8768 23.1832C87.8768 23.7034 87.8247 24.2549 87.7205 24.8377H75.9529ZM75.8904 21.7161H83.8501C83.621 20.6545 83.1479 19.8635 82.4297 19.3432C81.7118 18.823 80.8947 18.5631 79.9795 18.5631C78.8973 18.5631 78.0024 18.8391 77.2952 19.3901C76.5874 19.9416 76.119 20.7168 75.8904 21.7161Z" fill="black"/>
<path d="M111.693 19.2493V20.9353C111.693 24.0566 110.694 26.5852 108.697 28.5201C106.699 30.4553 104.119 31.4235 100.956 31.4235C97.5843 31.4235 94.7906 30.3262 92.5745 28.1304C90.3581 25.935 89.2501 23.2559 89.2501 20.0925C89.2501 16.9082 90.3474 14.2137 92.5432 12.0077C94.7385 9.80198 97.4596 8.69897 100.706 8.69897C102.745 8.69897 104.607 9.16222 106.293 10.0879C107.979 11.0144 109.29 12.2473 110.226 13.7869L106.543 15.9093C106.023 15.0149 105.237 14.2864 104.186 13.7244C103.135 13.1625 101.965 12.8818 100.674 12.8818C98.5933 12.8818 96.8821 13.5635 95.5398 14.9261C94.1977 16.2895 93.5267 18.0115 93.5267 20.0925C93.5267 22.1524 94.2076 23.8535 95.571 25.1963C96.9339 26.5383 98.7394 27.2094 100.987 27.2094C102.652 27.2094 104.03 26.8401 105.123 26.1014C106.215 25.363 106.959 24.3482 107.354 23.058H100.737V19.2493H111.693Z" fill="black"/>
<path d="M125.802 15.3791H129.829V30.9864H125.802V29.1447C124.595 30.6641 122.899 31.4236 120.714 31.4236C118.633 31.4236 116.848 30.6276 115.361 29.0356C113.873 27.4436 113.129 25.4925 113.129 23.1829C113.129 20.873 113.873 18.9219 115.361 17.3299C116.848 15.7379 118.633 14.9419 120.714 14.9419C122.899 14.9419 124.595 15.7017 125.802 17.2208V15.3791ZM118.373 26.3513C119.185 27.1736 120.215 27.5842 121.463 27.5842C122.712 27.5842 123.747 27.1736 124.569 26.3513C125.391 25.5295 125.802 24.4731 125.802 23.1829C125.802 21.8927 125.391 20.8368 124.569 20.0145C123.747 19.1927 122.712 18.7818 121.463 18.7818C120.215 18.7818 119.185 19.1927 118.373 20.0145C117.561 20.8368 117.156 21.8927 117.156 23.1829C117.156 24.4731 117.561 25.5295 118.373 26.3513Z" fill="black"/>
<path d="M149.493 14.9419C151.283 14.9419 152.713 15.5249 153.785 16.6899C154.857 17.8559 155.393 19.4164 155.393 21.3727V30.9864H151.366V21.6534C151.366 20.7168 151.137 19.9885 150.679 19.4682C150.221 18.948 149.576 18.6878 148.744 18.6878C147.828 18.6878 147.115 18.9899 146.606 19.5929C146.096 20.1968 145.841 21.0709 145.841 22.215V30.9864H141.814V21.6534C141.814 20.7168 141.585 19.9885 141.127 19.4682C140.67 18.948 140.025 18.6878 139.193 18.6878C138.297 18.6878 137.585 18.9899 137.054 19.5929C136.523 20.1968 136.258 21.0709 136.258 22.215V30.9864H132.232V15.3791H136.258V17.0333C137.195 15.6395 138.641 14.9419 140.597 14.9419C142.511 14.9419 143.926 15.6913 144.842 17.1896C145.883 15.6913 147.433 14.9419 149.493 14.9419Z" fill="black"/>
<path d="M174.586 14.9419C176.376 14.9419 177.806 15.5249 178.878 16.6899C179.95 17.8559 180.486 19.4164 180.486 21.3727V30.9864H176.459V21.6534C176.459 20.7168 176.23 19.9885 175.772 19.4682C175.314 18.948 174.669 18.6878 173.837 18.6878C172.921 18.6878 172.208 18.9899 171.699 19.5929C171.189 20.1968 170.934 21.0709 170.934 22.215V30.9864H166.907V21.6534C166.907 20.7168 166.678 19.9885 166.22 19.4682C165.763 18.948 165.118 18.6878 164.286 18.6878C163.39 18.6878 162.678 18.9899 162.147 19.5929C161.616 20.1968 161.351 21.0709 161.351 22.215V30.9864H157.325V15.3791H161.351V17.0333C162.288 15.6395 163.734 14.9419 165.69 14.9419C167.604 14.9419 169.019 15.6913 169.935 17.1896C170.976 15.6913 172.526 14.9419 174.586 14.9419Z" fill="black"/>
<path d="M195.156 15.3791H199.183V30.9864H195.156V29.1447C193.949 30.6641 192.253 31.4236 190.068 31.4236C187.987 31.4236 186.203 30.6276 184.715 29.0356C183.227 27.4436 182.483 25.4925 182.483 23.1829C182.483 20.873 183.227 18.9219 184.715 17.3299C186.203 15.7379 187.987 14.9419 190.068 14.9419C192.253 14.9419 193.949 15.7017 195.156 17.2208V15.3791ZM187.727 26.3513C188.539 27.1736 189.569 27.5842 190.817 27.5842C192.066 27.5842 193.101 27.1736 193.923 26.3513C194.745 25.5295 195.156 24.4731 195.156 23.1829C195.156 21.8927 194.745 20.8368 193.923 20.0145C193.101 19.1927 192.066 18.7818 190.817 18.7818C189.569 18.7818 188.539 19.1927 187.727 20.0145C186.916 20.8368 186.51 21.8927 186.51 23.1829C186.51 24.4731 186.916 25.5295 187.727 26.3513Z" fill="black"/>
<path d="M205.176 30.612C204.656 31.132 204.031 31.3927 203.303 31.3927C202.575 31.3927 201.95 31.132 201.431 30.612C200.91 30.0923 200.65 29.4676 200.65 28.739C200.65 28.0107 200.91 27.3866 201.431 26.8661C201.95 26.3461 202.575 26.0857 203.303 26.0857C204.031 26.0857 204.656 26.3461 205.176 26.8661C205.696 27.3866 205.957 28.0107 205.957 28.739C205.956 29.4676 205.696 30.0923 205.176 30.612Z" fill="black"/>
<path d="M209.452 13.5061C208.786 13.5061 208.208 13.2618 207.72 12.7726C207.23 12.2838 206.986 11.7063 206.986 11.0399C206.986 10.3744 207.23 9.79164 207.72 9.29222C208.208 8.7928 208.786 8.54309 209.452 8.54309C210.139 8.54309 210.726 8.7928 211.216 9.29222C211.704 9.79164 211.949 10.3744 211.949 11.0399C211.949 11.7063 211.704 12.2838 211.216 12.7726C210.726 13.2618 210.139 13.5061 209.452 13.5061ZM207.454 15.379H211.481V30.9863H207.454V15.379Z" fill="black"/>
<path d="M227.213 29.0356C225.61 30.6276 223.655 31.4236 221.344 31.4236C219.035 31.4236 217.084 30.6276 215.492 29.0356C213.9 27.4439 213.104 25.4925 213.104 23.1832C213.104 20.873 213.9 18.9219 215.492 17.3302C217.084 15.7379 219.035 14.9419 221.344 14.9419C223.655 14.9419 225.61 15.7379 227.213 17.3302C228.815 18.9219 229.616 20.873 229.616 23.1832C229.616 25.4925 228.815 27.4439 227.213 29.0356ZM218.332 26.2732C219.133 27.0845 220.137 27.4905 221.344 27.4905C222.551 27.4905 223.561 27.0845 224.373 26.2732C225.184 25.4615 225.59 24.4314 225.59 23.1832C225.59 21.9341 225.184 20.9042 224.373 20.0926C223.561 19.281 222.551 18.8753 221.344 18.8753C220.137 18.8753 219.133 19.281 218.332 20.0926C217.531 20.9042 217.131 21.9341 217.131 23.1832C217.131 24.4314 217.531 25.4615 218.332 26.2732Z" fill="black"/>
<mask id="mask0_3156_1240" style="mask-type:luminance" maskUnits="userSpaceOnUse" x="0" y="8" width="8" height="8">
<path d="M0 11.9647C0 14.1019 1.73262 15.8345 3.8701 15.8345C6.00758 15.8345 7.73993 14.1019 7.73993 11.9647C7.73993 9.82722 6.00758 8.0946 3.8701 8.0946C1.73262 8.0946 0 9.82722 0 11.9647Z" fill="white"/>
</mask>
<g mask="url(#mask0_3156_1240)">
<path d="M-3.81354 12.6233L3.21152 4.28116L11.5537 11.3062L4.5286 19.6484L-3.81354 12.6233Z" fill="url(#paint0_linear_3156_1240)"/>
</g>
<mask id="mask1_3156_1240" style="mask-type:luminance" maskUnits="userSpaceOnUse" x="0" y="24" width="8" height="8">
<path d="M0 28.0945C0 30.232 1.73262 31.9644 3.8701 31.9644C6.00758 31.9644 7.73993 30.232 7.73993 28.0945C7.73993 25.9573 6.00758 24.2247 3.8701 24.2247C1.73262 24.2247 0 25.9573 0 28.0945Z" fill="white"/>
</mask>
<g mask="url(#mask1_3156_1240)">
<path d="M-3.81335 28.7531L3.21143 20.411L11.5533 27.4358L4.52851 35.7779L-3.81335 28.7531Z" fill="url(#paint1_linear_3156_1240)"/>
</g>
<mask id="mask2_3156_1240" style="mask-type:luminance" maskUnits="userSpaceOnUse" x="8" y="0" width="17" height="40">
<path d="M8.15381 3.87037C8.15381 6.0073 9.88616 7.74021 12.0236 7.74021C12.5984 7.74021 13.142 7.61165 13.6324 7.38661L16.6812 10.4358C16.4792 10.9048 16.3663 11.4214 16.3663 11.9647C16.3663 12.5107 16.4806 13.0299 16.6845 13.5008L13.6792 16.5061C13.1768 16.2676 12.6168 16.13 12.0236 16.13C9.88616 16.13 8.15381 17.8627 8.15381 20.0001C8.15381 22.1373 9.88616 23.87 12.0236 23.87C12.6102 23.87 13.1645 23.7357 13.6628 23.5021L16.696 26.5351C16.4853 27.0126 16.3663 27.5394 16.3663 28.0945C16.3663 28.6287 16.4746 29.1372 16.67 29.6002L13.6485 32.6213C13.1541 32.3916 12.6047 32.2601 12.0236 32.2601C9.88616 32.2601 8.15381 33.9927 8.15381 36.1302C8.15381 38.2674 9.88616 40 12.0236 40C14.1611 40 15.8935 38.2674 15.8935 36.1302C15.8935 35.5244 15.7507 34.9543 15.5029 34.4436L18.4306 31.5159C18.9698 31.8015 19.5835 31.9643 20.2361 31.9643C22.3736 31.9643 24.1062 30.232 24.1062 28.0945C24.1062 25.9573 22.3736 24.2247 20.2361 24.2247C19.6051 24.2247 19.0111 24.3787 18.4843 24.6468L15.5097 21.6722C15.7531 21.1654 15.8935 20.5996 15.8935 20.0001C15.8935 19.407 15.7561 18.847 15.5177 18.3443L18.4607 15.4012C18.9931 15.6764 19.5955 15.8346 20.2361 15.8346C22.3736 15.8346 24.1062 14.1019 24.1062 11.9647C24.1062 9.82724 22.3736 8.09462 20.2361 8.09462C19.5931 8.09462 18.9876 8.25415 18.4539 8.53182L15.4949 5.57285C15.7476 5.05835 15.8935 4.48218 15.8935 3.87037C15.8935 1.7329 14.1611 0 12.0236 0C9.88616 0 8.15381 1.7329 8.15381 3.87037Z" fill="white"/>
</mask>
<g mask="url(#mask2_3156_1240)">
<path d="M-11.5544 23.4035L14.7726 -7.85992L43.8144 16.5966L17.4874 47.8601L-11.5544 23.4035Z" fill="url(#paint2_linear_3156_1240)"/>
</g>
<defs>
<linearGradient id="paint0_linear_3156_1240" x1="-5.20674" y1="22.7427" x2="4.80759" y2="10.8507" gradientUnits="userSpaceOnUse">
<stop stop-color="#2385FA"/>
<stop offset="0.0026" stop-color="#2385FA"/>
<stop offset="0.1815" stop-color="#2282F6"/>
<stop offset="0.3645" stop-color="#1E7BEA"/>
<stop offset="0.5495" stop-color="#196FD5"/>
<stop offset="0.7359" stop-color="#105DB8"/>
<stop offset="0.9216" stop-color="#064794"/>
<stop offset="1" stop-color="#013C82"/>
</linearGradient>
<linearGradient id="paint1_linear_3156_1240" x1="2.74011" y1="29.4346" x2="12.7544" y2="17.5426" gradientUnits="userSpaceOnUse">
<stop stop-color="#2385FA"/>
<stop offset="0.0026" stop-color="#2385FA"/>
<stop offset="0.1815" stop-color="#2282F6"/>
<stop offset="0.3645" stop-color="#1E7BEA"/>
<stop offset="0.5495" stop-color="#196FD5"/>
<stop offset="0.7359" stop-color="#105DB8"/>
<stop offset="0.9216" stop-color="#064794"/>
<stop offset="1" stop-color="#013C82"/>
</linearGradient>
<linearGradient id="paint2_linear_3156_1240" x1="5.9245" y1="32.1161" x2="15.9388" y2="20.2241" gradientUnits="userSpaceOnUse">
<stop stop-color="#2385FA"/>
<stop offset="0.0026" stop-color="#2385FA"/>
<stop offset="0.1815" stop-color="#2282F6"/>
<stop offset="0.3645" stop-color="#1E7BEA"/>
<stop offset="0.5495" stop-color="#196FD5"/>
<stop offset="0.7359" stop-color="#105DB8"/>
<stop offset="0.9216" stop-color="#064794"/>
<stop offset="1" stop-color="#013C82"/>
</linearGradient>
</defs>
</svg>