<svg xmlns="http://www.w3.org/2000/svg" width="100%" height="100%" fill="none" viewBox="0 0 276 49">
  <path fill="#fff" d="M54.695 24.087c2.297 1.324 3.446 3.321 3.446 5.993 0 2.223-.787 4.045-2.36 5.469-1.573 1.423-3.509 2.135-5.806 2.135H38.85v-26.22h10.338c2.248 0 4.14.692 5.675 2.078 1.536 1.386 2.304 3.153 2.304 5.3 0 2.173-.824 3.921-2.472 5.245Zm-5.507-7.791H44.02v5.768h5.17c.798 0 1.466-.275 2.003-.824.537-.55.806-1.236.806-2.06 0-.824-.262-1.51-.787-2.06-.524-.55-1.199-.825-2.023-.825Zm.787 16.556c.873 0 1.597-.294 2.172-.88.575-.587.862-1.33.862-2.23 0-.873-.287-1.604-.862-2.19-.575-.587-1.298-.88-2.172-.88h-5.956v6.18h5.956ZM64.62 10.34h-4.83v27.344h4.831V10.34Zm14.987 8.615h4.832v18.729h-4.832v-2.098c-1.174 1.748-3.034 2.623-5.581 2.623-2.048 0-3.74-.687-5.076-2.06-1.336-1.374-2.004-3.272-2.004-5.694v-11.5h4.832v10.9c0 1.25.338 2.204 1.012 2.866.674.662 1.573.992 2.697.992 1.248 0 2.247-.386 2.996-1.16.75-.775 1.124-1.935 1.124-3.484V18.955Zm11.837 11.35c.649 2.347 2.41 3.52 5.281 3.52 1.848 0 3.246-.623 4.196-1.872l3.895 2.247c-1.848 2.673-4.57 4.009-8.166 4.009-3.096 0-5.58-.937-7.453-2.81-1.874-1.873-2.81-4.233-2.81-7.079 0-2.822.924-5.175 2.772-7.061 1.847-1.886 4.22-2.829 7.117-2.829 2.747 0 5.012.95 6.798 2.847 1.786 1.898 2.679 4.246 2.679 7.043a11.3 11.3 0 0 1-.188 1.985h-14.12Zm-.075-3.746h9.552c-.275-1.274-.843-2.223-1.705-2.847-.861-.624-1.842-.936-2.94-.936-1.299 0-2.373.331-3.221.992-.85.662-1.412 1.592-1.686 2.791Zm42.963-2.959v2.022c0 3.746-1.199 6.78-3.595 9.102-2.398 2.323-5.495 3.485-9.29 3.485-4.046 0-7.398-1.318-10.057-3.953-2.66-2.634-3.99-5.849-3.99-9.645 0-3.821 1.317-7.054 3.952-9.702 2.635-2.646 5.899-3.97 9.795-3.97 2.447 0 4.682.556 6.705 1.667 2.023 1.111 3.596 2.59 4.72 4.438l-4.42 2.547c-.624-1.073-1.568-1.947-2.829-2.622-1.261-.674-2.665-1.01-4.214-1.01-2.497 0-4.55.817-6.161 2.453-1.61 1.636-2.416 3.702-2.416 6.2 0 2.471.817 4.513 2.453 6.124 1.636 1.61 3.802 2.415 6.499 2.415 1.998 0 3.652-.443 4.963-1.33 1.311-.885 2.204-2.103 2.679-3.651h-7.942V23.6h13.148Zm16.931-4.645h4.831v18.729h-4.831v-2.21c-1.449 1.823-3.484 2.735-6.106 2.735-2.498 0-4.639-.956-6.424-2.867-1.786-1.91-2.679-4.25-2.679-7.022 0-2.772.893-5.114 2.679-7.024 1.785-1.91 3.926-2.866 6.424-2.866 2.622 0 4.657.912 6.106 2.735v-2.21Zm-8.915 13.166c.974.987 2.21 1.48 3.708 1.48 1.498 0 2.74-.492 3.727-1.48.986-.986 1.48-2.253 1.48-3.801 0-1.549-.494-2.816-1.48-3.803-.987-.986-2.229-1.48-3.727-1.48-1.498 0-2.734.494-3.708 1.48-.974.987-1.461 2.254-1.461 3.803 0 1.548.487 2.815 1.461 3.801Zm37.344-13.691c2.148 0 3.864.7 5.151 2.098 1.286 1.399 1.929 3.271 1.929 5.619v11.537h-4.833v-11.2c0-1.124-.275-1.998-.823-2.622-.55-.625-1.324-.937-2.322-.937-1.1 0-1.955.363-2.567 1.086-.612.725-.917 1.774-.917 3.147v10.526h-4.832v-11.2c0-1.124-.275-1.998-.825-2.622-.549-.625-1.323-.937-2.322-.937-1.074 0-1.929.363-2.566 1.086-.636.725-.955 1.774-.955 3.147v10.526h-4.832v-18.73h4.832v1.986c1.124-1.673 2.859-2.51 5.207-2.51 2.297 0 3.994.9 5.094 2.697 1.248-1.798 3.109-2.697 5.581-2.697Zm30.112 0c2.148 0 3.864.7 5.151 2.098 1.286 1.399 1.929 3.271 1.929 5.619v11.537h-4.833v-11.2c0-1.124-.275-1.998-.823-2.622-.55-.625-1.324-.937-2.322-.937-1.1 0-1.955.363-2.567 1.086-.612.725-.917 1.774-.917 3.147v10.526h-4.832v-11.2c0-1.124-.275-1.998-.825-2.622-.549-.625-1.323-.937-2.322-.937-1.074 0-1.929.363-2.566 1.086-.636.725-.955 1.774-.955 3.147v10.526h-4.832v-18.73h4.832v1.986c1.124-1.673 2.859-2.51 5.207-2.51 2.297 0 3.994.9 5.094 2.697 1.248-1.798 3.109-2.697 5.581-2.697Zm24.685.525h4.832v18.729h-4.832v-2.21c-1.449 1.823-3.484 2.735-6.106 2.735-2.498 0-4.639-.956-6.424-2.867-1.786-1.91-2.678-4.25-2.678-7.022 0-2.772.892-5.114 2.678-7.024 1.785-1.91 3.926-2.866 6.424-2.866 2.622 0 4.657.912 6.106 2.735v-2.21Zm-8.915 13.166c.974.987 2.21 1.48 3.708 1.48 1.499 0 2.74-.492 3.727-1.48.986-.986 1.48-2.253 1.48-3.801 0-1.549-.494-2.816-1.48-3.803-.987-.986-2.228-1.48-3.727-1.48-1.498 0-2.734.494-3.708 1.48-.974.987-1.461 2.254-1.461 3.803 0 1.548.487 2.815 1.461 3.801Zm20.938 5.113a3.067 3.067 0 0 1-2.247.937 3.064 3.064 0 0 1-2.247-.937 3.061 3.061 0 0 1-.937-2.247c0-.874.312-1.623.937-2.248a3.064 3.064 0 0 1 2.247-.936c.873 0 1.623.312 2.247.936.624.625.937 1.374.937 2.248 0 .874-.313 1.624-.937 2.247Zm5.131-20.527c-.799 0-1.492-.293-2.078-.88-.588-.587-.881-1.28-.881-2.079 0-.799.293-1.498.881-2.098.586-.599 1.279-.899 2.078-.899.824 0 1.53.3 2.117.9.586.599.88 1.298.88 2.097 0 .8-.294 1.492-.88 2.079a2.887 2.887 0 0 1-2.117.88Zm-2.397 2.248h4.832v18.729h-4.832v-18.73Zm23.711 16.388c-1.924 1.91-4.271 2.866-7.042 2.866-2.772 0-5.113-.956-7.023-2.866-1.911-1.91-2.866-4.252-2.866-7.023 0-2.772.955-5.114 2.866-7.024 1.91-1.91 4.251-2.866 7.023-2.866 2.771 0 5.118.955 7.042 2.866 1.922 1.91 2.884 4.252 2.884 7.024 0 2.771-.962 5.112-2.884 7.023ZM262.3 32.028c.961.974 2.166 1.46 3.615 1.46 1.448 0 2.659-.486 3.633-1.46.974-.974 1.461-2.21 1.461-3.708 0-1.499-.487-2.735-1.461-3.709-.974-.974-2.185-1.46-3.633-1.46-1.449 0-2.654.486-3.615 1.46-.961.974-1.442 2.21-1.442 3.709 0 1.498.481 2.734 1.442 3.708Z"></path>
  <path fill="#57B3FF" d="M4.944 10.214a4.644 4.644 0 1 0 0 9.288 4.644 4.644 0 0 0 0-9.288Zm0 19.356a4.644 4.644 0 1 0 0 9.287 4.644 4.644 0 0 0 0-9.287Z"></path>
  <path fill="#57B3FF" d="M24.583 29.57c-.757 0-1.47.184-2.102.506l-3.57-3.57a4.6 4.6 0 0 0 .01-3.993l3.532-3.532a4.62 4.62 0 0 0 2.13.52 4.644 4.644 0 1 0-2.139-8.763l-3.55-3.55a4.613 4.613 0 0 0 .478-2.044 4.644 4.644 0 1 0-4.644 4.644 4.61 4.61 0 0 0 1.93-.424l3.66 3.659a4.629 4.629 0 0 0 .003 3.678l-3.606 3.606a4.62 4.62 0 0 0-1.987-.45 4.644 4.644 0 0 0 0 9.287 4.61 4.61 0 0 0 1.967-.442l3.64 3.64a4.634 4.634 0 0 0-.031 3.678l-3.626 3.626a4.622 4.622 0 0 0-1.95-.434 4.644 4.644 0 1 0 4.644 4.644 4.61 4.61 0 0 0-.469-2.023l3.513-3.513a4.644 4.644 0 1 0 2.167-8.75Z"></path>
</svg>
